<?xml version="1.0" encoding="utf-8"?>
<!-- Generator: Adobe Illustrator 24.0.2, SVG Export Plug-In . SVG Version: 6.00 Build 0)  -->
<svg version="1.1" id="Layer_1" xmlns="http://www.w3.org/2000/svg" xmlns:xlink="http://www.w3.org/1999/xlink" x="0px" y="0px"
	 viewBox="0 0 64 64" style="enable-background:new 0 0 64 64;" xml:space="preserve">
<style type="text/css">
	.st0{fill:#FFFFFF;}
</style>
<g>
	<g>
		<path class="st0" d="M3.32,31.12c-0.11-0.26-0.23-0.51-0.35-0.77c-0.11-0.24-0.47-0.37-0.72-0.29c-0.29,0.09-0.43,0.32-0.47,0.61
			C1.37,34.5,2.61,38.25,4.1,41.73c0.42,0.97,0.86,1.93,1.31,2.89c0.13-0.31,0.25-0.62,0.38-0.93c-0.09,0.02-0.18,0.04-0.27,0.06
			c-0.07,0.01-0.2,0.06-0.27,0.05c0.02,0,0.05-0.01,0.07-0.01c-0.03,0-0.05,0.01-0.08,0.01c-0.04,0-0.08,0.01-0.13,0.01
			c-0.09,0.01-0.19,0.01-0.28,0.02c-0.18,0.01-0.36,0-0.53,0c-0.09,0-0.19-0.01-0.28-0.02c-0.07-0.01-0.09,0-0.01,0
			c-0.05,0-0.1-0.01-0.15-0.02c-0.35-0.06-0.7-0.15-1.03-0.27c-0.05-0.02-0.1-0.04-0.14-0.05c-0.11-0.05,0.06,0.03-0.01-0.01
			c-0.08-0.04-0.17-0.08-0.25-0.12c-0.17-0.08-0.33-0.18-0.48-0.28c0.1,0.24,0.19,0.48,0.29,0.72c0-0.04,0.05-0.16,0-0.06
			c-0.04,0.1-0.01,0.02,0.01,0c0.04-0.05-0.06,0.06-0.05,0.06c0,0,0.05-0.04,0.05-0.05c0,0.01-0.11,0.07-0.06,0.05
			c0.03-0.01,0.12-0.05,0.14-0.08c0,0-0.12,0.04-0.06,0.03c0.02,0,0.05-0.02,0.07-0.02c0.04-0.01,0.09-0.02,0.13-0.03
			c0.03,0,0.18-0.03,0.07-0.01c-0.11,0.02,0.06,0,0.09,0c0.58-0.03,1.16-0.03,1.74-0.04c1.19-0.03,2.37-0.05,3.56-0.08
			c0.68-0.01,1.36-0.03,2.04-0.04c0.33-0.01,0.65-0.29,0.63-0.63c-0.01-0.34-0.28-0.64-0.63-0.63c-1.28,0.03-2.56,0.05-3.84,0.08
			c-0.63,0.01-1.26,0.03-1.89,0.04c-0.32,0.01-0.65,0.01-0.97,0.02c-0.26,0.01-0.53,0-0.8,0.03c-0.61,0.07-1.36,0.33-1.46,1.04
			c-0.04,0.29,0.03,0.55,0.29,0.72c1.42,0.91,3.2,1.18,4.83,0.77c0.19-0.05,0.34-0.19,0.41-0.37c0.08-0.2,0.06-0.37-0.03-0.56
			c-0.39-0.85-0.79-1.69-1.16-2.55c-0.09-0.2-0.17-0.4-0.26-0.6c-0.07-0.17,0.05,0.12-0.02-0.06C5.04,40.72,5.02,40.66,5,40.61
			c-0.05-0.12-0.1-0.25-0.15-0.37c-0.18-0.44-0.35-0.88-0.51-1.32c-0.31-0.86-0.59-1.74-0.82-2.63c-0.11-0.43-0.21-0.87-0.29-1.31
			c-0.04-0.22-0.08-0.44-0.11-0.66c-0.01-0.05-0.02-0.11-0.02-0.16c0.02,0.15,0-0.03-0.01-0.05c-0.02-0.13-0.03-0.26-0.04-0.38
			c-0.1-1.01-0.1-2.04,0.01-3.05c-0.39,0.11-0.79,0.21-1.18,0.32C2,31.25,2.11,31.5,2.23,31.76c0.14,0.3,0.6,0.4,0.87,0.23
			C3.41,31.78,3.47,31.44,3.32,31.12L3.32,31.12z"/>
	</g>
</g>
<g>
	<g>
		<path class="st0" d="M13.22,43.67c3.13-0.54,5.8-2.9,6.82-5.89c0.17-0.5-0.34-0.85-0.78-0.78c-1.5,0.25-2.94,1.2-3.47,2.67
			c-0.47,1.31,0,2.97,1.22,3.71c1.43,0.87,3.31,0.2,4.57-0.68c1.16-0.81,2.07-1.94,2.74-3.19c0.76-1.41,1.26-2.95,1.61-4.51
			c0.18-0.8-0.97-1.11-1.22-0.34c-0.34,1.05-0.55,2.14-0.63,3.24C24,38.9,24,39.96,24.24,40.93c0.21,0.83,0.72,1.68,1.6,1.91
			c0.98,0.26,2.09-0.3,2.89-0.83c0.89-0.59,1.64-1.38,2.17-2.3c-0.39-0.05-0.77-0.1-1.16-0.15c0.47,1.71,1.97,2.74,3.59,3.23
			c1.83,0.55,3.78,0.47,5.66,0.22c2.29-0.29,4.51-0.9,6.63-1.8c0.52-0.22,1.03-0.46,1.53-0.71c0.49-0.25,1.07-0.53,1.25-1.09
			c0.2-0.63-0.18-1.16-0.66-1.52c-0.42-0.31-0.9-0.57-1.37-0.82c-2.24-1.2-4.7-1.93-7.22-2.17c0,0.42,0,0.84,0,1.27
			c5.99-0.77,12.02-1.22,18.06-1.34c1.72-0.03,3.44-0.04,5.16-0.02c0.82,0.01,0.82-1.26,0-1.27c-6.04-0.06-12.08,0.19-18.1,0.78
			c-1.71,0.17-3.42,0.36-5.13,0.58c-0.34,0.04-0.63,0.26-0.63,0.63c0,0.37,0.29,0.6,0.63,0.63c1.95,0.19,3.88,0.72,5.65,1.54
			c0.44,0.21,0.88,0.43,1.31,0.67c0.37,0.21,0.83,0.46,1.06,0.69c0,0,0-0.01-0.01-0.01c0.04,0.07,0.05,0.08,0.02,0.02
			c0,0,0-0.08,0.01-0.07c-0.01-0.03,0.11-0.05-0.02,0.03c0,0,0.11-0.1-0.04,0.03c-0.11,0.09-0.37,0.21-0.55,0.3
			c-0.46,0.24-0.93,0.46-1.4,0.67c-1.86,0.81-3.84,1.36-5.84,1.66c-0.96,0.15-1.94,0.23-2.91,0.24c-0.79,0.01-1.43-0.05-2.14-0.21
			c-0.41-0.09-0.81-0.21-1.21-0.36c-0.12-0.05-0.05-0.02-0.02-0.01c-0.06-0.02-0.11-0.05-0.17-0.08c-0.09-0.04-0.19-0.09-0.28-0.14
			c-0.17-0.09-0.33-0.19-0.49-0.3c-0.03-0.02-0.06-0.05-0.1-0.07c-0.04-0.03-0.03-0.02,0.01,0.01c-0.02-0.02-0.05-0.04-0.07-0.06
			c-0.07-0.06-0.14-0.11-0.2-0.18c-0.07-0.07-0.14-0.14-0.21-0.21c-0.03-0.03-0.05-0.06-0.08-0.09c0-0.01-0.12-0.15-0.05-0.05
			c-0.12-0.16-0.22-0.33-0.31-0.5c-0.02-0.04-0.03-0.07-0.05-0.11c0.04,0.08,0-0.01-0.02-0.04c-0.04-0.11-0.07-0.21-0.1-0.32
			c-0.15-0.52-0.89-0.63-1.16-0.15c-0.37,0.64-0.85,1.21-1.44,1.65c-0.29,0.22-0.64,0.43-0.98,0.59c-0.3,0.15-0.67,0.32-1.04,0.32
			c-0.09,0-0.15-0.01-0.24-0.04c-0.02,0-0.11-0.05-0.02-0.01c-0.03-0.01-0.05-0.03-0.08-0.04c-0.01-0.01-0.12-0.08-0.06-0.04
			c0.05,0.04-0.03-0.02-0.03-0.03c-0.03-0.03-0.06-0.06-0.09-0.09c-0.08-0.07,0,0.01-0.04-0.04c-0.04-0.06-0.08-0.12-0.12-0.19
			c-0.01-0.02-0.11-0.21-0.08-0.14c-0.07-0.16-0.12-0.34-0.16-0.51c-0.09-0.38-0.11-0.62-0.13-1.06c-0.03-0.46-0.03-0.92,0-1.38
			c0.06-1.05,0.27-2.08,0.6-3.08c-0.41-0.11-0.82-0.22-1.22-0.34c-0.53,2.34-1.37,4.75-3.11,6.4c-0.82,0.78-1.99,1.51-3.21,1.44
			c-0.27-0.01-0.55-0.1-0.79-0.25c-0.03-0.02-0.05-0.03-0.08-0.05c0.01,0.01,0.06,0.05,0.01,0c-0.05-0.04-0.09-0.08-0.14-0.13
			c-0.05-0.05-0.1-0.11-0.14-0.16c0.06,0.07-0.05-0.07-0.06-0.1c-0.16-0.25-0.19-0.36-0.26-0.66c-0.01-0.03-0.03-0.22-0.02-0.11
			c-0.01-0.06-0.01-0.13-0.01-0.19c0-0.06,0-0.13,0-0.19c0-0.03,0-0.06,0-0.1c0-0.02,0.01-0.16,0-0.05
			c0.04-0.35,0.13-0.55,0.28-0.81c0.16-0.28,0.34-0.48,0.61-0.71c0.48-0.41,1.13-0.66,1.81-0.77c-0.26-0.26-0.52-0.52-0.78-0.78
			c-0.43,1.27-1.23,2.41-2.29,3.31c-1.02,0.87-2.28,1.46-3.64,1.7c-0.34,0.06-0.53,0.47-0.44,0.78
			C12.54,43.59,12.88,43.73,13.22,43.67L13.22,43.67z"/>
	</g>
</g>
</svg>
