<?xml version="1.0" encoding="utf-8"?>
<!-- Generator: Adobe Illustrator 24.0.2, SVG Export Plug-In . SVG Version: 6.00 Build 0)  -->
<svg version="1.1" id="Layer_1" xmlns="http://www.w3.org/2000/svg" xmlns:xlink="http://www.w3.org/1999/xlink" x="0px" y="0px"
	 viewBox="0 0 1000 200" style="enable-background:new 0 0 1000 200;" xml:space="preserve">
<style type="text/css">
	.st0{fill:#C1C8E4;}
</style>
<g>
	<g>
		<path class="st0" d="M27.5,93.6c-1.9-7.9-3.8-15.9-5.6-23.8c-0.6-2.5-3.2-4.1-5.7-3.7c-2.7,0.4-4.3,2.5-4.5,5.1
			c-1.1,13.6-1.1,27.3,0,40.9c0.6,7.1,1.5,14.2,2.7,21.2c0.9,5.6,2,11.2,3.9,16.6c2.3,6.3,5.5,12.3,10.5,16.8
			c1.6,1.4,3.7,1.9,5.7,1.1c2-0.9,3-2.6,3.2-4.7c2-21.5,0.1-43.3-5.5-64.2c-1.6-5.8-3.4-11.5-5.6-17.1c-3.3,0.9-6.7,1.8-10,2.8
			c4.2,10.9,10.2,23.8,22.7,26.9c14,3.4,25.7-7.1,34.1-16.9C79,88,84.5,81.4,90.1,74.8c-2.9-1.2-5.9-2.4-8.9-3.7
			c0.3,11.5,1,23,2.1,34.5c0.6,5.9,1.2,11.8,2.1,17.6c0.8,5.4,2.4,10.7,5.9,15c4,4.8,10.6,7.5,16.7,5.8c2.6-0.7,4.5-3.7,3.6-6.4
			c-0.9-2.7-3.6-4.4-6.4-3.6c-0.2,0.1-0.5,0.1-0.7,0.2c-1,0.3,0.3-0.1,0.3,0c0,0.2-1.3-0.1-1.4,0c0.1-0.1,1.3,0.3,0.3,0
			c-0.2-0.1-0.5-0.1-0.7-0.2c-0.2-0.1-0.5-0.1-0.7-0.2c-0.7-0.2,0.1-0.1,0.2,0.1c-0.2-0.3-1-0.5-1.3-0.7c-0.2-0.1-0.4-0.3-0.6-0.4
			c-0.9-0.5,0.2,0,0.2,0.1c0-0.1-1-0.9-1.1-1c-0.2-0.2-0.3-0.4-0.5-0.5c-0.1-0.1-0.8-1-0.3-0.3c0.4,0.6-0.4-0.6-0.5-0.7
			c-0.3-0.5-0.6-1-0.8-1.5c-0.1-0.2-0.3-0.5-0.3-0.8c0.3,1,0.1,0.3,0.1,0.1c-0.2-0.6-0.4-1.2-0.6-1.8c-0.6-2.2-1.2-4.6-1.4-6.8
			c0,0.1,0.1,0.9,0.1,0.3c0-0.3-0.1-0.6-0.1-0.9c-0.1-0.7-0.2-1.3-0.2-2c-0.2-1.4-0.3-2.8-0.5-4.2c-0.3-2.6-0.6-5.2-0.8-7.9
			c-0.5-5.3-0.9-10.7-1.3-16c-0.4-6-0.6-12-0.8-18c-0.1-2.1-1.3-3.9-3.2-4.7c-1.8-0.8-4.3-0.5-5.7,1.1c-4.7,5.5-9.3,11-14,16.5
			c-2,2.4-4,4.8-6.2,7.1c-1,1.1-2.1,2.1-3.2,3.1c-0.5,0.5-1,0.9-1.5,1.3c-0.5,0.5-1.2,1.3-1.8,1.5c1-0.5,0.1-0.1-0.2,0.2
			c-0.3,0.2-0.6,0.5-1,0.7c-0.5,0.4-1.1,0.7-1.6,1.1c-0.5,0.3-1.1,0.7-1.7,0.9c-0.3,0.2-0.7,0.3-1,0.5c-0.2,0.1-0.3,0.2-0.5,0.2
			c-0.3,0.2-0.2,0.1,0.4-0.2c-0.5,0.4-1.5,0.5-2.1,0.7c-0.6,0.2-1.2,0.3-1.8,0.4c-0.2,0-1.2,0-0.4,0.1c0.9,0.1-0.3,0-0.4,0
			c-0.7,0.1-1.5,0-2.2,0c-0.1,0-0.3,0-0.4,0c-0.6-0.1-0.5-0.1,0.3,0.1c-0.3,0.1-0.8-0.2-1.1-0.2c-0.5-0.1-1.1-0.3-1.6-0.5
			c-0.3-0.1-0.5-0.2-0.8-0.3c-0.7-0.2,1.2,0.6,0.2,0.1c-0.6-0.3-1.2-0.6-1.7-0.9c-0.3-0.2-0.5-0.3-0.8-0.5c-0.1-0.1-0.2-0.1-0.3-0.2
			c-0.3-0.3-0.3-0.3,0,0c0.1,0.1,0.2,0.1,0.3,0.2c-0.2-0.1-0.3-0.3-0.5-0.4c-0.3-0.2-0.5-0.4-0.7-0.7c-0.9-0.8-1.7-1.8-2.5-2.7
			c-0.8-0.9,0.7,0.9,0,0c-0.2-0.3-0.4-0.6-0.6-0.8c-0.5-0.7-0.9-1.3-1.3-2.1c-0.7-1.2-1.4-2.5-2.1-3.7c-0.6-1.3-1.2-2.6-1.8-3.9
			c-0.5-1.1,0.4,1.1,0-0.1c-0.1-0.3-0.3-0.7-0.4-1c-0.3-0.8-0.6-1.5-0.9-2.3c-1-2.5-3.5-4.6-6.4-3.6c-2.5,0.8-4.7,3.7-3.6,6.4
			c3.7,9.8,6.6,19.9,8.5,30.2c0.5,2.6,0.9,5.2,1.3,7.8c0,0.4,0.1,0.8,0.2,1.1c0.1,0.8-0.1-0.8,0,0c0.1,0.6,0.1,1.2,0.2,1.8
			c0.1,1.3,0.3,2.6,0.4,3.9c0.5,5.3,0.8,10.6,0.8,15.9c0,5.9-0.2,11.9-0.8,17.8c3-1.2,5.9-2.4,8.9-3.7c-1-0.9-1.8-1.8-2.7-2.8
			c0,0-0.8-1-0.3-0.4s-0.3-0.3-0.3-0.4c-0.5-0.6-0.9-1.3-1.3-1.9c-0.6-1-1.2-2-1.7-3c-0.3-0.6-0.5-1.2-0.8-1.8
			c-0.5-1.2,0.4,1.1-0.1-0.2c-0.1-0.4-0.3-0.7-0.4-1.1c-1.9-5.1-3-10.5-4-15.9c-0.3-1.4-0.5-2.9-0.7-4.3c-0.1-0.8-0.2-1.6-0.4-2.4
			c-0.1-0.5-0.1-1-0.2-1.4c-0.2-1.2,0.1,0.7-0.1-0.6c-0.4-3.2-0.8-6.5-1.1-9.7c-0.6-6.6-0.9-13.3-1-20c-0.1-7.5,0.2-15,0.8-22.4
			c-3.4,0.5-6.8,0.9-10.2,1.4c1.9,7.9,3.8,15.9,5.7,23.8c0.6,2.6,3.8,4.5,6.4,3.6C26.6,99.1,28.2,96.4,27.5,93.6L27.5,93.6z"/>
	</g>
</g>
<g>
	<g>
		<path class="st0" d="M160.9,99.2c-18.2,2.9-32.4,19.8-33.2,38c-0.2,3.6,3.4,5.7,6.6,5c15.1-3.1,28.5-12.4,37.2-25.1
			c1.5-2.1,0.6-5.2-1.3-6.7c-2-1.5-5-1.5-6.8,0.4c-5.5,5.8-7,14.7-3.9,22c3.3,8.1,11.5,13.3,20.3,12.5c8.8-0.8,16.5-5.7,23-11.4
			c6.3-5.6,11-12.6,17.3-18.2c0.4-0.4,0.8-0.7,1.3-1.1c0.2-0.2,0.4-0.3,0.6-0.5c0,0,1.1-0.8,0.6-0.5c-0.4,0.3,0.2-0.1,0.2-0.2
			c0.3-0.2,0.5-0.4,0.8-0.6c0.5-0.4,1-0.7,1.5-1c0.9-0.6,1.8-1.1,2.7-1.6c0.5-0.3,1.1-0.5,1.6-0.8c0.1,0,0.8-0.3,0.2-0.1
			c-0.6,0.2,0.3-0.1,0.4-0.1c1-0.4,2-0.7,3.1-0.9c0.3-0.1,0.6-0.1,0.8-0.2c-0.4,0.1-0.8,0.1-0.1,0c0.5,0,1-0.1,1.4-0.1
			c0.6,0,1.1,0,1.7,0.1c0.2,0,0.4,0,0.6,0.1c-0.4,0-0.7-0.1-0.1,0c1.1,0.3,2.3,0.6,3.4,1c-1-2.5-2.1-5.1-3.1-7.6
			c-2.3,4.8-4.2,9.9-5,15.1c-0.8,5.4-0.8,11.3,2.1,16.2c3.3,5.6,9.9,8.7,16.4,7.9c7-0.8,13-4.5,18.6-8.6
			c19.7-14.4,35.9-34.6,43-58.2c4-13.1,4.7-27,1.8-40.3c-0.5-2.1-2.8-3.9-5-3.8c-2.4,0.1-4.2,1.6-5,3.8
			c-6.4,17.4-10.4,35.5-12.2,53.9c-0.9,9.1-1.3,18.3-1,27.5c0.1,4.4,0,9.3,3,12.9c3.8,4.5,9.8,3.5,14.3,0.9
			c4.4-2.5,8.6-5.5,12.8-8.5c4.4-3.2,8.7-6.5,13-9.9c2.1-1.7,1.9-5.6,0-7.3c-2.3-2.1-5-1.8-7.3,0c-4,3.1-7.9,6.2-11.9,9.3
			c-3.7,2.9-8,5.6-10.6,9.6c-2.8,4.2-2.3,9.9,1.3,13.5c3,3,7.3,4.1,11.4,4.6c18.3,2.2,36.6-3.6,53-11.2c9.3-4.3,18.3-9.4,27.1-14.6
			c2.2-1.3,3.1-4.1,2.1-6.5c-1-2.3-3.6-3.8-6.1-3c-9.7,3-19.7,6.9-23.8,17c-1.8,4.5-1.7,9.6,0.2,14c2.1,4.9,7.1,7.7,12.1,8.6
			c11.2,2.2,23,1.6,34.1-0.9c5-1.1,10.6-2.4,14.4-6.1c2-1.9,3.3-4.7,3-7.5c-0.2-3.4-2.3-6.1-5.1-7.9c-2.4-1.6-5.4-2.7-8.2-3.6
			c-3-1-6.1-1.5-9.3-1.9c-6-0.7-12.1-0.1-17.9,1.5c-2.6,0.8-4.5,3.7-3.6,6.4c0.9,2.7,3.6,4.4,6.4,3.6c1-0.3,2-0.5,2.9-0.7
			c0.5-0.1,1-0.2,1.5-0.3c0.3,0,0.5-0.1,0.8-0.1c0.8-0.2-0.7,0.1,0.1,0c2.2-0.2,4.4-0.3,6.5-0.3c1,0,2,0.2,3,0.2c0.6,0.1,0,0-0.1,0
			c0.3,0,0.5,0.1,0.8,0.1c0.6,0.1,1.2,0.2,1.7,0.3c2.1,0.4,4.1,1,6.1,1.7c0.2,0.1,0.5,0.2,0.7,0.3c0,0,0.8,0.3,0.3,0.1
			c-0.5-0.2,0.3,0.1,0.3,0.1c0.3,0.1,0.6,0.3,0.9,0.4c0.4,0.2,0.7,0.4,1.1,0.6c0.2,0.1,0.4,0.2,0.5,0.3c0.6,0.3-0.5-0.5-0.1-0.1
			c0.1,0.1,0.3,0.3,0.4,0.4c-0.1-0.1-0.4-0.8-0.2-0.3c0.3,0.5-0.1-0.3-0.1-0.4c0,0.1,0.2,0.8,0.1,0.1c-0.1-0.7,0-0.2,0,0
			c0,0,0.2-1.1,0-0.5s0.2-0.5,0.2-0.4c0,0-0.3,0.6-0.4,0.6c0,0,0.7-0.6,0.2-0.4c-0.1,0.1-0.3,0.3-0.4,0.4c-0.7,0.6,0.6-0.3-0.2,0.1
			c-0.4,0.2-0.7,0.4-1.1,0.6c-0.2,0.1-0.4,0.2-0.5,0.3c-0.6,0.4,0.8-0.3,0.1-0.1c-2.1,0.7-4.3,1.3-6.5,1.9c-2.2,0.5-4.5,1-6.8,1.3
			c-0.2,0-1.5,0.2-0.8,0.1c-0.5,0.1-1.1,0.1-1.6,0.2c-1.2,0.1-2.4,0.2-3.6,0.3c-4.7,0.3-9.4,0.2-14-0.3c-0.5-0.1-1.1-0.1-1.6-0.2
			c0.8,0.1-0.3-0.1-0.6-0.1c-1-0.2-2-0.4-3-0.7c-0.3-0.1-1.6-0.6-0.7-0.2c-0.4-0.2-0.8-0.4-1.2-0.6c-0.8-0.4,0.2,0.3-0.4-0.3
			c-0.2-0.2-1.1-1.1-0.6-0.6c0.5,0.5-0.2-0.3-0.3-0.5c-0.1-0.2-0.5-1.2-0.3-0.5c0.2,0.7-0.1-0.4-0.2-0.6c-0.1-0.3-0.4-0.9-0.3-1.3
			c0,0,0,1.1,0.1,0.4c0-0.2,0-0.4,0-0.6c0-0.4,0-0.8,0-1.1c0-0.2,0-0.4,0-0.6c0-0.6-0.1,0.4-0.1,0.4c-0.1-0.3,0.2-1,0.3-1.3
			c0.1-0.5,0.4-1,0.5-1.5c0.1-0.5-0.1,0.3-0.2,0.3c0.1-0.2,0.2-0.5,0.3-0.7c0.2-0.4,0.4-0.8,0.7-1.2c0.2-0.4,0.9-1.2,0.2-0.4
			c0.7-0.8,1.4-1.5,2.1-2.2c0.2-0.2,0.4-0.3,0.5-0.4c0.6-0.5-0.6,0.4,0,0c0.5-0.3,0.9-0.6,1.3-0.9c0.9-0.6,1.9-1.1,2.8-1.6
			c0.6-0.3,1.1-0.5,1.7-0.8c-0.9,0.4,0.4-0.2,0.7-0.3c2.1-0.8,4.3-1.5,6.5-2.2c-1.3-3.2-2.7-6.3-4-9.5c-7.2,4.2-14.4,8.3-21.9,12
			c-1.9,0.9-3.8,1.9-5.8,2.8c-0.8,0.4-1.6,0.7-2.4,1.1c-0.5,0.2-1,0.4-1.5,0.6c-0.6,0.2-0.6,0.3-0.2,0.1c-0.3,0.1-0.6,0.3-1,0.4
			c-3.7,1.5-7.5,2.9-11.3,4.1c-4,1.2-8,2.2-12.1,2.9c-0.4,0.1-0.9,0.1-1.3,0.2c-0.2,0-1.3,0.2-0.4,0.1c-1,0.1-2,0.2-3.1,0.3
			c-2,0.2-4.1,0.3-6.2,0.3c-1.9,0-3.8-0.1-5.7-0.2c-0.5,0-1-0.1-1.6-0.1c-1.7-0.1,1.1,0.2-0.3,0c-0.9-0.2-1.8-0.4-2.6-0.6
			c-0.3-0.1-0.5-0.2-0.7-0.3c1.2,0.4,0.1,0-0.1-0.1c-0.1-0.1-0.9-0.4-1-0.6c0.2,0.1,0.3,0.3,0.5,0.4c-0.2-0.1-0.4-0.3-0.5-0.5
			c-0.1-0.1-0.2-0.2-0.2-0.3c0.4,0.6,0.5,0.7,0.2,0.2c-0.1-0.9-0.2,0.3,0.1,0.3c0-0.1-0.1-0.2-0.1-0.3c-0.1-0.6-0.1-0.4,0,0.3
			c0-0.3,0-0.6,0-0.9c-0.1,0.7-0.1,0.7,0.1,0.1c-0.1,0.1-0.1,0.3-0.2,0.4c0.1-0.3,0.3-0.5,0.4-0.8c0.3-0.5,0.3-0.5,0,0
			c0.2-0.2,0.4-0.5,0.6-0.7c0.6-0.7,1.3-1.3,2-1.9c1.9-1.6,3.9-3,5.8-4.6c4.2-3.3,8.4-6.5,12.6-9.8c-2.5-2.4-4.9-4.9-7.3-7.3
			c-6.1,4.9-13,9.9-20,14.5c-1.6,1-3.2,2.2-4.9,2.9c1-0.4-0.4,0.1-0.5,0.1c-0.5,0.2-0.7-0.1,0,0c-1.4-0.3,1,0.5-0.3,0
			c0.3,0.1,0.6,0.2,0.9,0.5c-0.4-0.4-0.4-0.4,0.1,0.2c-0.3-0.9,0,0.1,0,0.2c-0.1-0.4-0.2-0.8-0.3-1.2c-0.4-1.3,0,1.1-0.1-0.2
			c0-0.4-0.1-0.8-0.1-1.2c-0.1-2.1-0.2-4.2-0.2-6.3c-0.1-8.4,0.2-16.7,1-25c0.2-2,0.4-4,0.7-6c0.2-1.8-0.1,1,0.1-0.8
			c0-0.4,0.1-0.7,0.1-1.1c0.2-1.3,0.4-2.5,0.6-3.8c0.7-4.1,1.5-8.1,2.3-12.2c2.1-9.2,4.7-18.3,8-27.2c-3.3,0-6.7,0-10,0
			c0.3,1.3,0.5,2.6,0.8,4c0.1,0.4,0.3,2,0.1,0.8c0.1,0.7,0.2,1.5,0.3,2.2c0.3,2.6,0.4,5.3,0.3,7.9c0,2.6-0.3,5.3-0.6,7.9
			c-0.2,1.4,0.1-0.7,0,0.2c-0.1,0.4-0.1,0.7-0.2,1.1c-0.1,0.6-0.2,1.2-0.3,1.7c-0.2,1.3-0.5,2.6-0.8,3.9c-0.6,2.7-1.4,5.3-2.3,7.9
			c-0.4,1.2-0.8,2.4-1.3,3.6c-0.2,0.6-0.4,1.1-0.7,1.7c-0.5,1.3,0.3-0.6-0.1,0.2c-0.2,0.4-0.4,0.8-0.5,1.2c-2.2,5-4.9,9.7-7.8,14.3
			c-0.7,1.1-1.4,2.2-2.2,3.2c-0.4,0.6-0.8,1.1-1.2,1.7c-0.2,0.3-0.4,0.5-0.5,0.7c-0.1,0.1-0.9,1.2-0.6,0.8c0.5-0.6-0.5,0.6-0.4,0.6
			c-0.2,0.2-0.4,0.5-0.6,0.7c-0.4,0.5-0.8,0.9-1.2,1.4c-0.9,1.1-1.9,2.2-2.9,3.3c-3.7,4.1-7.6,7.9-11.8,11.5c-1,0.8-2,1.7-3,2.5
			c0,0-1.1,0.9-0.5,0.4c0.5-0.4-0.3,0.2-0.4,0.3c-0.6,0.5-1.2,0.9-1.8,1.3c-2.4,1.7-4.8,3.4-7.4,4.8c-0.6,0.3-1.2,0.6-1.8,0.9
			c-0.9,0.4-0.4,0.2-0.1,0.1c-0.3,0.1-0.6,0.2-0.9,0.4c-0.8,0.3-1.6,0.5-2.4,0.7c-0.3,0.1-0.6,0.1-0.9,0.2c-1.1,0.2,0.7,0-0.5,0.1
			c-0.6,0-1.2,0-1.9,0c-1,0-0.2,0,0,0c-0.3-0.1-0.6-0.1-0.9-0.2c0.1,0-1.4-0.4-0.7-0.2c0.6,0.2-0.5-0.3-0.6-0.3
			c-0.2-0.1-0.4-0.2-0.6-0.4c-0.1-0.1-0.2-0.1-0.3-0.2c-0.5-0.3-0.4-0.3,0.2,0.2c-0.1,0.1-1.1-1-1.2-1.1c-0.1-0.1-0.4-0.5-0.4-0.5
			c0.3,0,0.6,0.9,0.1,0c-0.1-0.2-0.5-1.3-0.8-1.4c0.1,0,0.4,1.2,0.2,0.3c-0.1-0.3-0.2-0.6-0.3-0.9c-0.1-0.5-0.3-1.1-0.4-1.6
			c-0.2-1,0.1,0.3,0,0.4c0,0-0.1-1-0.1-1.1c-0.1-1.2,0-2.4,0.1-3.6c0-0.3,0.1-0.5,0.1-0.8c0.1-1.2-0.2,1,0-0.1
			c0.1-0.6,0.2-1.3,0.4-1.9c0.3-1.3,0.6-2.5,1-3.8c0.4-1.3,0.9-2.6,1.4-3.9c0.1-0.2,0.2-0.5,0.3-0.7c0.1-0.4-0.4,0.9,0.1-0.2
			c0.3-0.6,0.6-1.2,0.9-1.8c1.6-3.3,0.2-6.3-3.1-7.6c-16.5-6.6-31.6,8.7-41.2,20.1c-2.5,2.9-5.1,5.7-8.1,8.1c-0.4,0.4-0.9,0.7-1.3,1
			c-0.4,0.4,0.1,0,0.1-0.1c-0.2,0.1-0.4,0.3-0.6,0.4c-0.8,0.6-1.6,1.2-2.5,1.7c-1.6,1-3.2,1.9-4.9,2.7c-0.2,0.1-0.4,0.2-0.6,0.3
			c0.1,0,0.8-0.3,0.2-0.1c-0.4,0.1-0.8,0.3-1.2,0.4c-0.9,0.3-1.7,0.5-2.6,0.7c-0.4,0.1-0.8,0.1-1.2,0.2c0.9-0.2,0.3,0-0.2,0
			c-0.9,0.1-1.7,0.1-2.6,0c-0.1,0-0.4,0-0.6-0.1c0,0,1,0.2,0.4,0.1c-0.4-0.1-0.8-0.1-1.1-0.3c-0.4-0.1-0.8-0.2-1.1-0.3
			c-0.2-0.1-0.4-0.1-0.6-0.2c0.4,0.1,0.7,0.3,0.1,0c-0.8-0.4-1.5-0.8-2.2-1.3c-0.9-0.6,0.5,0.5-0.2-0.1c-0.3-0.3-0.6-0.6-0.9-0.9
			c-0.1-0.1-0.2-0.3-0.4-0.4c-0.5-0.5-0.1,0,0.1,0.2c-0.3-0.2-0.5-0.8-0.7-1.1c-0.2-0.4-0.4-0.8-0.6-1.1c-0.1-0.1-0.4-0.6-0.1-0.1
			c0.4,0.6,0-0.1-0.1-0.2c-0.3-0.8-0.5-1.7-0.7-2.5c0-0.1-0.1-0.5-0.1-0.6c-0.1,0.2,0.1,1.1,0,0.3c0-0.4-0.1-0.9-0.1-1.3
			c0-0.4,0-0.9,0-1.3c0-0.2,0.1-0.4,0-0.6c0-0.7-0.2,0.9,0,0.3c0.2-0.8,0.4-1.7,0.6-2.5c0-0.1,0.1-0.5,0.2-0.5
			c-0.1,0.1-0.4,0.9-0.1,0.2c0.2-0.4,0.4-0.8,0.6-1.1s0.5-0.7,0.7-1.1c-0.6,0.9,0,0,0.4-0.4c-2.7-2.1-5.4-4.2-8.1-6.3
			c-0.5,0.8-1.1,1.5-1.6,2.2c0.4-0.6,0.1-0.1-0.2,0.2c-0.2,0.3-0.5,0.6-0.7,0.9c-1.1,1.3-2.2,2.5-3.4,3.7s-2.4,2.3-3.7,3.3
			c-0.2,0.2-1.1,0.9-0.4,0.3c-0.4,0.3-0.7,0.6-1.1,0.8c-0.7,0.5-1.4,1-2.1,1.4c-1.4,0.9-2.8,1.8-4.3,2.6c-0.7,0.4-1.5,0.8-2.2,1.1
			c-0.4,0.2-0.8,0.4-1.2,0.6c-0.1,0.1-1.3,0.5-0.6,0.3c0.6-0.3-0.5,0.2-0.6,0.3c-0.4,0.2-0.9,0.3-1.3,0.5c-0.8,0.3-1.6,0.6-2.4,0.8
			c-1.7,0.5-3.4,0.9-5.1,1.3c2.2,1.7,4.4,3.3,6.6,5c0-0.6,0.1-1.1,0.1-1.7c0-0.2,0.2-1.6,0-0.3c0.2-0.9,0.3-1.9,0.6-2.8
			c0.2-0.9,0.5-1.9,0.8-2.8c0.1-0.4,0.3-0.8,0.4-1.2c0.1-0.3,0.2-0.5,0.3-0.8c-0.3,0.6-0.3,0.6,0,0.1c0.8-1.6,1.6-3.2,2.6-4.8
			c0.5-0.8,1.1-1.6,1.7-2.4c-0.7,1,0.2-0.2,0.4-0.4c0.3-0.4,0.6-0.7,0.9-1.1c1.3-1.4,2.6-2.7,4.1-3.9c1-0.8-0.4,0.3,0.4-0.3
			c0.3-0.2,0.7-0.5,1-0.7c0.8-0.6,1.6-1.1,2.5-1.5c0.8-0.5,1.7-0.9,2.6-1.3c0.3-0.1,0.5-0.2,0.8-0.3c-0.5,0.2-0.6,0.3-0.3,0.1
			c0.4-0.2,0.9-0.3,1.4-0.5c1.8-0.6,3.7-1.1,5.6-1.4c2.7-0.4,4.4-3.9,3.6-6.4C166.4,99.9,163.8,98.7,160.9,99.2L160.9,99.2z"/>
	</g>
</g>
<g>
	<g>
		<path class="st0" d="M509.3,46.1c-0.9-2.1-1.9-4.2-2.8-6.3c-0.9-2-3.9-3-5.9-2.4c-2.4,0.8-3.5,2.6-3.8,5
			c-3.5,31.4,6.7,62.1,18.9,90.5c3.4,8,7,15.8,10.7,23.7c1-2.5,2.1-5.1,3.1-7.6c-0.7,0.2-1.5,0.4-2.2,0.5c-0.6,0.1-1.7,0.5-2.3,0.4
			c0.2,0,0.4-0.1,0.6-0.1c-0.2,0-0.4,0.1-0.6,0.1c-0.3,0-0.7,0.1-1,0.1c-0.8,0.1-1.5,0.1-2.3,0.1c-1.5,0.1-2.9,0-4.4,0
			c-0.8,0-1.5-0.1-2.3-0.2c-0.6-0.1-0.8,0-0.1,0c-0.4,0-0.8-0.1-1.2-0.2c-2.9-0.5-5.7-1.2-8.4-2.3c-0.4-0.1-0.8-0.3-1.2-0.4
			c-0.9-0.4,0.5,0.2-0.1-0.1c-0.7-0.3-1.4-0.6-2.1-1c-1.4-0.7-2.7-1.5-4-2.3c0.8,1.9,1.6,3.9,2.4,5.9c0-0.3,0.4-1.3,0-0.5
			c-0.3,0.8-0.1,0.2,0,0c0.3-0.4-0.5,0.5-0.4,0.5c0,0,0.4-0.4,0.4-0.4c0,0.1-0.9,0.6-0.5,0.4c0.3-0.1,1-0.4,1.2-0.6
			c0,0-1,0.3-0.5,0.2c0.2,0,0.4-0.1,0.6-0.2c0.4-0.1,0.7-0.2,1.1-0.3c0.2,0,1.5-0.3,0.6-0.1c-0.9,0.1,0.5,0,0.7,0
			c4.7-0.3,9.5-0.2,14.2-0.3c9.7-0.2,19.5-0.4,29.2-0.6c5.6-0.1,11.1-0.2,16.7-0.4c2.7-0.1,5.3-2.4,5.2-5.2
			c-0.1-2.8-2.3-5.3-5.2-5.2c-10.5,0.2-20.9,0.4-31.4,0.7c-5.2,0.1-10.3,0.2-15.5,0.3c-2.7,0.1-5.3,0.1-8,0.2
			c-2.2,0.1-4.4,0-6.5,0.2c-5,0.6-11.1,2.7-12,8.5c-0.4,2.4,0.3,4.5,2.4,5.9c11.6,7.4,26.2,9.7,39.6,6.3c1.6-0.4,2.8-1.6,3.4-3
			c0.7-1.6,0.5-3.1-0.3-4.6c-3.2-6.9-6.5-13.9-9.5-20.9c-0.7-1.6-1.4-3.3-2.1-4.9c-0.6-1.4,0.4,0.9-0.2-0.5
			c-0.2-0.4-0.4-0.9-0.5-1.3c-0.4-1-0.8-2-1.2-3c-1.5-3.6-2.8-7.2-4.2-10.8c-2.6-7.1-4.9-14.3-6.7-21.6c-0.9-3.5-1.7-7.1-2.3-10.7
			c-0.3-1.8-0.6-3.6-0.9-5.4c-0.1-0.4-0.1-0.9-0.2-1.3c0.2,1.3,0-0.3,0-0.4c-0.1-1.1-0.3-2.1-0.4-3.2c-0.8-8.3-0.8-16.7,0.1-25
			c-3.2,0.9-6.5,1.8-9.7,2.6c0.9,2.1,1.9,4.2,2.8,6.3c1.1,2.5,4.9,3.3,7.1,1.9C510,51.5,510.4,48.8,509.3,46.1L509.3,46.1z"/>
	</g>
</g>
<g>
	<g>
		<path class="st0" d="M590.3,148.9c25.6-4.4,47.5-23.8,55.8-48.3c1.4-4.1-2.8-7-6.4-6.4c-12.3,2.1-24.1,9.8-28.4,21.9
			c-3.8,10.7,0,24.3,10,30.4c11.7,7.1,27.1,1.6,37.4-5.6c9.5-6.7,16.9-15.9,22.4-26.1c6.2-11.5,10.3-24.2,13.2-36.9
			c1.5-6.5-7.9-9.1-10-2.8c-2.8,8.6-4.5,17.5-5.2,26.5c-0.6,8.1-0.5,16.9,1.5,24.8c1.7,6.8,5.9,13.7,13.1,15.6
			c8,2.1,17.1-2.4,23.7-6.8c7.3-4.8,13.4-11.3,17.8-18.9c-3.2-0.4-6.3-0.8-9.5-1.2c3.9,14,16.1,22.5,29.4,26.5
			c15,4.5,31,3.8,46.3,1.8c18.8-2.4,36.9-7.3,54.3-14.7c4.2-1.8,8.4-3.8,12.5-5.8c4-2.1,8.7-4.3,10.2-9c1.7-5.1-1.4-9.5-5.4-12.4
			c-3.5-2.6-7.4-4.7-11.2-6.7c-18.3-9.8-38.5-15.8-59.2-17.8c0,3.5,0,6.9,0,10.4c49.1-6.3,98.5-10,147.9-10.9
			c14.1-0.3,28.2-0.3,42.3-0.2c6.7,0.1,6.7-10.3,0-10.4c-49.5-0.5-99,1.6-148.2,6.4c-14,1.4-28,2.9-42,4.8c-2.8,0.4-5.2,2.1-5.2,5.2
			c0,3,2.4,4.9,5.2,5.2c15.9,1.6,31.8,5.9,46.3,12.6c3.6,1.7,7.2,3.5,10.7,5.5c3,1.7,6.8,3.8,8.7,5.6c0,0,0-0.1-0.1-0.1
			c0.3,0.6,0.4,0.6,0.2,0.2c0,0,0-0.7,0.1-0.6c-0.1-0.3,0.9-0.4-0.2,0.3c0,0,0.9-0.8-0.3,0.2c-0.9,0.7-3.1,1.8-4.5,2.5
			c-3.8,1.9-7.6,3.8-11.5,5.5c-15.2,6.6-31.4,11.1-47.8,13.6c-7.9,1.2-15.9,1.9-23.8,2c-6.4,0.1-11.7-0.4-17.5-1.7
			c-3.4-0.7-6.6-1.7-9.9-3c-1-0.4-0.4-0.2-0.2-0.1c-0.5-0.2-0.9-0.4-1.4-0.6c-0.8-0.4-1.5-0.7-2.3-1.1c-1.4-0.7-2.7-1.6-4-2.5
			c-0.3-0.2-0.5-0.4-0.8-0.6c-0.3-0.2-0.3-0.2,0.1,0.1c-0.2-0.2-0.4-0.3-0.6-0.5c-0.6-0.5-1.1-0.9-1.6-1.4c-0.6-0.6-1.2-1.1-1.7-1.7
			c-0.2-0.2-0.4-0.5-0.6-0.7c0-0.1-1-1.3-0.4-0.4c-1-1.3-1.8-2.7-2.5-4.1c-0.2-0.3-0.3-0.6-0.4-0.9c0.3,0.7,0-0.1-0.1-0.4
			c-0.3-0.9-0.6-1.8-0.8-2.7c-1.2-4.3-7.3-5.1-9.5-1.2c-3,5.2-7,9.9-11.8,13.5c-2.4,1.8-5.2,3.5-8,4.9c-2.4,1.2-5.5,2.6-8.5,2.6
			c-0.7,0-1.3-0.1-2-0.3c-0.2,0-0.9-0.4-0.2-0.1c-0.2-0.1-0.4-0.2-0.7-0.4c-0.1-0.1-1-0.6-0.5-0.3c0.4,0.3-0.2-0.2-0.2-0.2
			c-0.2-0.2-0.5-0.5-0.7-0.7c-0.6-0.6,0,0.1-0.3-0.3c-0.4-0.5-0.7-1-1-1.5c-0.1-0.2-0.9-1.7-0.6-1.2c-0.6-1.3-1-2.8-1.3-4.2
			c-0.7-3.1-0.9-5.1-1.1-8.7c-0.2-3.8-0.2-7.6,0-11.3c0.5-8.6,2.2-17.1,4.9-25.3c-3.3-0.9-6.7-1.8-10-2.8
			c-4.3,19.2-11.2,38.9-25.5,52.4c-6.7,6.4-16.3,12.4-26.3,11.8c-2.3-0.1-4.5-0.8-6.5-2.1c-0.2-0.1-0.4-0.3-0.6-0.4
			c0.1,0.1,0.5,0.4,0,0c-0.4-0.3-0.8-0.7-1.1-1c-0.4-0.4-0.8-0.9-1.2-1.3c0.5,0.6-0.4-0.6-0.5-0.8c-1.3-2.1-1.6-2.9-2.1-5.4
			c0-0.2-0.3-1.8-0.2-0.9c-0.1-0.5-0.1-1-0.1-1.6c0-0.5,0-1.1,0-1.6c0-0.3,0-0.5,0-0.8c0-0.2,0.1-1.3,0-0.4c0.4-2.9,1-4.5,2.3-6.6
			c1.3-2.3,2.8-3.9,5-5.8c4-3.3,9.3-5.4,14.8-6.3c-2.1-2.1-4.3-4.3-6.4-6.4c-3.5,10.4-10.1,19.7-18.7,27.1
			c-8.3,7.1-18.7,12-29.8,13.9c-2.8,0.5-4.3,3.9-3.6,6.4C584.7,148.2,587.5,149.4,590.3,148.9L590.3,148.9z"/>
	</g>
</g>
</svg>
