<?xml version="1.0" encoding="utf-8"?>
<!-- Generator: Adobe Illustrator 24.0.2, SVG Export Plug-In . SVG Version: 6.00 Build 0)  -->
<svg version="1.1" id="Layer_1" xmlns="http://www.w3.org/2000/svg" xmlns:xlink="http://www.w3.org/1999/xlink" x="0px" y="0px"
	 viewBox="0 0 1000 200" style="enable-background:new 0 0 1000 200;" xml:space="preserve">
<g>
	<g>
		<path d="M27.51,93.56c-1.88-7.94-3.77-15.89-5.65-23.83c-0.6-2.52-3.24-4.05-5.7-3.72c-2.68,0.36-4.29,2.49-4.5,5.1
			c-1.13,13.62-1.13,27.32,0.01,40.94c0.6,7.11,1.5,14.19,2.67,21.22c0.94,5.61,2.02,11.24,3.94,16.61
			c2.25,6.28,5.5,12.27,10.5,16.8c1.57,1.42,3.68,1.91,5.67,1.07c2.02-0.85,2.99-2.62,3.19-4.74c2.02-21.46,0.11-43.33-5.48-64.15
			c-1.56-5.8-3.42-11.52-5.56-17.14c-3.34,0.92-6.68,1.84-10.01,2.76c4.22,10.9,10.18,23.83,22.68,26.91
			c13.95,3.43,25.69-7.13,34.08-16.9c5.6-6.53,11.14-13.12,16.71-19.67c-2.95-1.22-5.91-2.45-8.86-3.67
			c0.29,11.52,0.99,23.03,2.12,34.5c0.58,5.89,1.21,11.78,2.07,17.63c0.8,5.41,2.37,10.71,5.91,14.99
			c3.97,4.79,10.55,7.47,16.67,5.81c2.62-0.71,4.49-3.73,3.63-6.39c-0.87-2.69-3.58-4.39-6.39-3.63c-0.24,0.06-0.47,0.11-0.71,0.18
			c-1.03,0.27,0.32-0.09,0.31-0.04c-0.03,0.16-1.28-0.08-1.43-0.01c0.12-0.06,1.25,0.27,0.32,0.03c-0.23-0.06-0.47-0.1-0.7-0.16
			c-0.23-0.06-0.46-0.14-0.69-0.21c-0.71-0.21,0.09-0.08,0.22,0.12c-0.17-0.26-1.02-0.52-1.3-0.69c-0.21-0.13-0.41-0.27-0.63-0.4
			c-0.86-0.53,0.16,0.04,0.15,0.15c0.01-0.09-1.01-0.9-1.11-1c-0.18-0.18-0.35-0.36-0.52-0.54c-0.11-0.12-0.77-0.96-0.31-0.33
			c0.44,0.6-0.36-0.56-0.46-0.73c-0.29-0.47-0.56-0.96-0.81-1.46c-0.11-0.22-0.28-0.51-0.35-0.75c0.29,1.01,0.13,0.32,0.05,0.08
			c-0.21-0.59-0.42-1.18-0.6-1.78c-0.64-2.17-1.22-4.56-1.37-6.83c0,0.05,0.12,0.94,0.05,0.33c-0.04-0.29-0.07-0.58-0.11-0.87
			c-0.08-0.65-0.16-1.31-0.24-1.96c-0.17-1.39-0.33-2.78-0.49-4.17c-0.3-2.62-0.57-5.24-0.83-7.86c-0.52-5.32-0.94-10.66-1.28-16
			c-0.38-6-0.64-12-0.79-18.01c-0.05-2.09-1.26-3.93-3.19-4.74c-1.78-0.75-4.34-0.5-5.67,1.07c-4.66,5.49-9.32,10.98-13.98,16.46
			c-2.03,2.39-4.03,4.79-6.18,7.06c-1.02,1.08-2.07,2.13-3.15,3.14c-0.49,0.46-0.99,0.91-1.5,1.35c-0.53,0.46-1.19,1.25-1.85,1.54
			c1.04-0.46,0.08-0.07-0.21,0.15c-0.32,0.23-0.64,0.46-0.96,0.68c-0.53,0.37-1.08,0.72-1.63,1.05c-0.54,0.33-1.1,0.65-1.66,0.94
			c-0.33,0.17-0.67,0.34-1.01,0.5c-0.17,0.08-0.34,0.16-0.51,0.23c-0.35,0.16-0.23,0.1,0.38-0.16c-0.5,0.38-1.48,0.54-2.09,0.72
			c-0.58,0.17-1.18,0.31-1.77,0.42c-0.19,0.04-1.21,0.02-0.39,0.07c0.86,0.05-0.26,0-0.4,0.01c-0.73,0.05-1.47,0.04-2.21,0
			c-0.12-0.01-0.25-0.02-0.37-0.03c-0.58-0.06-0.5-0.05,0.26,0.05c-0.3,0.05-0.84-0.15-1.13-0.22c-0.55-0.12-1.1-0.28-1.64-0.46
			c-0.26-0.09-0.52-0.19-0.79-0.28c-0.7-0.24,1.17,0.58,0.18,0.07c-0.58-0.3-1.17-0.59-1.73-0.94c-0.28-0.17-0.55-0.35-0.82-0.54
			c-0.09-0.06-0.18-0.13-0.27-0.19c-0.35-0.26-0.35-0.26,0,0.01c0.09,0.07,0.18,0.14,0.26,0.21c-0.17-0.14-0.34-0.28-0.51-0.42
			c-0.25-0.21-0.5-0.43-0.74-0.66c-0.91-0.84-1.73-1.75-2.52-2.7c-0.77-0.92,0.67,0.95-0.03-0.03c-0.2-0.28-0.41-0.56-0.61-0.84
			c-0.47-0.67-0.91-1.35-1.34-2.05c-0.74-1.21-1.42-2.46-2.06-3.73c-0.64-1.28-1.23-2.58-1.81-3.89c-0.5-1.14,0.44,1.08-0.03-0.07
			c-0.13-0.33-0.27-0.65-0.4-0.98c-0.31-0.75-0.6-1.51-0.9-2.27c-0.98-2.52-3.53-4.55-6.39-3.63c-2.47,0.8-4.66,3.67-3.63,6.39
			c3.73,9.79,6.6,19.91,8.55,30.2c0.49,2.57,0.92,5.16,1.29,7.75c0.05,0.38,0.11,0.76,0.16,1.14c0.11,0.82-0.1-0.82,0-0.01
			c0.07,0.61,0.15,1.22,0.23,1.84c0.15,1.3,0.29,2.6,0.42,3.91c0.51,5.29,0.78,10.61,0.82,15.92c0.04,5.93-0.23,11.86-0.79,17.77
			c2.95-1.22,5.91-2.45,8.86-3.67c-0.95-0.86-1.85-1.78-2.68-2.76c-0.04-0.04-0.85-1-0.32-0.37c0.53,0.63-0.25-0.34-0.28-0.39
			c-0.45-0.62-0.87-1.26-1.28-1.91c-0.61-0.98-1.16-1.99-1.68-3.02c-0.29-0.58-0.55-1.17-0.82-1.75c-0.55-1.2,0.39,1.05-0.08-0.19
			c-0.14-0.36-0.29-0.73-0.42-1.09c-1.92-5.13-3.03-10.52-3.96-15.9c-0.25-1.44-0.49-2.89-0.71-4.33c-0.12-0.8-0.24-1.61-0.36-2.41
			c-0.07-0.48-0.14-0.97-0.2-1.45c-0.16-1.15,0.09,0.7-0.07-0.55c-0.41-3.23-0.78-6.46-1.07-9.7c-0.6-6.64-0.92-13.31-0.98-19.98
			c-0.06-7.48,0.23-14.96,0.84-22.42c-3.4,0.46-6.8,0.92-10.2,1.38c1.88,7.94,3.77,15.89,5.65,23.83c0.63,2.64,3.78,4.47,6.39,3.63
			C26.64,99.06,28.18,96.4,27.51,93.56L27.51,93.56z"/>
	</g>
</g>
<g>
	<g>
		<path d="M160.94,99.19c-18.19,2.94-32.4,19.82-33.23,38.01c-0.16,3.57,3.43,5.66,6.57,5.01c15.12-3.13,28.51-12.38,37.22-25.06
			c1.46-2.13,0.57-5.22-1.34-6.7c-1.98-1.53-5.03-1.49-6.82,0.41c-5.47,5.8-6.96,14.67-3.93,22.03
			c3.33,8.09,11.51,13.29,20.33,12.51c8.82-0.77,16.54-5.68,23.01-11.44c6.27-5.58,11.04-12.58,17.34-18.15
			c0.42-0.37,0.84-0.74,1.27-1.1c0.18-0.15,0.37-0.31,0.55-0.46c-0.03,0.02,1.06-0.83,0.59-0.48c-0.43,0.33,0.19-0.14,0.23-0.16
			c0.25-0.18,0.5-0.37,0.76-0.55c0.5-0.36,1.01-0.71,1.53-1.04c0.89-0.57,1.8-1.11,2.73-1.6c0.52-0.27,1.05-0.53,1.59-0.78
			c0.08-0.04,0.75-0.31,0.18-0.08c-0.59,0.23,0.28-0.1,0.39-0.13c1-0.36,2.01-0.67,3.05-0.89c0.27-0.06,0.55-0.09,0.82-0.16
			c-0.4,0.1-0.77,0.07-0.14,0.02c0.48-0.04,0.97-0.08,1.45-0.09c0.56-0.01,1.11,0.01,1.67,0.05c0.21,0.02,0.42,0.04,0.63,0.06
			c-0.44-0.04-0.71-0.12-0.12,0.01c1.15,0.26,2.26,0.58,3.36,1.02c-1.03-2.54-2.07-5.08-3.1-7.63c-2.3,4.79-4.2,9.86-5,15.14
			c-0.82,5.45-0.78,11.29,2.11,16.18c3.34,5.65,9.93,8.66,16.4,7.92c6.99-0.8,13.03-4.53,18.6-8.59
			c19.71-14.37,35.86-34.6,42.99-58.15c3.97-13.08,4.73-26.98,1.8-40.35c-0.47-2.13-2.83-3.91-5.01-3.81
			c-2.42,0.11-4.19,1.57-5.01,3.81c-6.35,17.37-10.39,35.48-12.24,53.88c-0.92,9.14-1.25,18.34-0.99,27.52
			c0.13,4.44,0.01,9.3,3.04,12.88c3.78,4.46,9.81,3.49,14.34,0.9c4.43-2.53,8.65-5.54,12.8-8.49c4.43-3.15,8.74-6.46,12.97-9.88
			c2.12-1.72,1.92-5.58,0-7.34c-2.28-2.1-5.05-1.79-7.34,0c-3.96,3.09-7.91,6.17-11.87,9.26c-3.72,2.9-8.01,5.58-10.65,9.58
			c-2.8,4.23-2.29,9.91,1.32,13.49c3.04,3.02,7.31,4.15,11.43,4.65c18.33,2.23,36.6-3.55,53.03-11.19
			c9.32-4.33,18.26-9.41,27.14-14.56c2.24-1.3,3.12-4.14,2.12-6.48c-0.97-2.3-3.64-3.78-6.13-3.01c-9.67,3-19.74,6.94-23.8,17.01
			c-1.81,4.5-1.74,9.62,0.2,14.04c2.14,4.87,7.07,7.66,12.1,8.64c11.16,2.18,23.05,1.56,34.1-0.89c4.98-1.11,10.64-2.36,14.38-6.08
			c1.97-1.95,3.25-4.67,3.05-7.48c-0.24-3.44-2.28-6.07-5.06-7.94c-2.44-1.64-5.41-2.71-8.19-3.62c-3.01-0.98-6.12-1.54-9.26-1.91
			c-5.96-0.7-12.11-0.12-17.87,1.53c-2.61,0.75-4.5,3.7-3.63,6.39c0.86,2.65,3.59,4.43,6.39,3.63c0.97-0.28,1.95-0.53,2.94-0.74
			c0.49-0.11,0.99-0.2,1.49-0.29c0.25-0.04,0.5-0.07,0.75-0.12c0.84-0.16-0.73,0.06,0.12-0.02c2.18-0.21,4.36-0.34,6.55-0.25
			c1.01,0.04,2.01,0.16,3.02,0.23c0.61,0.05-0.02-0.01-0.13-0.02c0.25,0.04,0.5,0.08,0.75,0.12c0.58,0.09,1.16,0.2,1.74,0.32
			c2.06,0.43,4.09,1.01,6.06,1.74c0.24,0.09,0.47,0.18,0.71,0.27c0.02,0.01,0.79,0.33,0.31,0.12c-0.47-0.2,0.29,0.13,0.31,0.14
			c0.31,0.14,0.61,0.28,0.91,0.43c0.37,0.18,0.74,0.37,1.1,0.58c0.17,0.1,0.35,0.24,0.53,0.33c0.59,0.27-0.5-0.53-0.06-0.07
			c0.12,0.13,0.3,0.32,0.44,0.42c-0.08-0.05-0.43-0.76-0.2-0.27c0.25,0.54-0.09-0.34-0.09-0.36c0.01,0.13,0.23,0.82,0.07,0.06
			c-0.14-0.66-0.03-0.17-0.04,0.03c0,0.01,0.19-1.1,0.04-0.53c-0.15,0.57,0.17-0.47,0.2-0.44c0.01,0.01-0.32,0.58-0.37,0.6
			c-0.04,0.02,0.74-0.64,0.22-0.35c-0.13,0.07-0.3,0.29-0.41,0.4c-0.66,0.65,0.61-0.34-0.21,0.14c-0.35,0.21-0.69,0.42-1.06,0.61
			c-0.18,0.09-0.37,0.17-0.55,0.27c-0.63,0.35,0.8-0.27,0.12-0.05c-2.15,0.69-4.3,1.34-6.49,1.87c-2.23,0.53-4.48,0.98-6.75,1.33
			c-0.2,0.03-1.52,0.21-0.8,0.12c-0.55,0.07-1.09,0.13-1.64,0.19c-1.19,0.13-2.37,0.23-3.57,0.3c-4.67,0.3-9.36,0.2-14.02-0.29
			c-0.55-0.06-1.09-0.12-1.64-0.19c0.82,0.1-0.31-0.05-0.57-0.09c-1.01-0.17-2.02-0.37-3-0.67c-0.29-0.09-1.61-0.62-0.73-0.21
			c-0.42-0.2-0.82-0.43-1.23-0.65c-0.79-0.44,0.16,0.29-0.37-0.25c-0.16-0.16-1.08-1.08-0.61-0.57c0.46,0.5-0.21-0.34-0.32-0.53
			c-0.12-0.2-0.51-1.21-0.3-0.53c0.23,0.71-0.11-0.41-0.16-0.59c-0.09-0.32-0.35-0.94-0.27-1.27c0.01-0.03,0.03,1.07,0.08,0.45
			c0.02-0.18-0.03-0.39-0.03-0.57c-0.01-0.38-0.01-0.76,0.01-1.14c0.01-0.19,0.05-0.39,0.04-0.58c-0.01-0.63-0.06,0.44-0.06,0.42
			c-0.08-0.33,0.2-1,0.28-1.33c0.13-0.5,0.36-1,0.47-1.5c0.11-0.54-0.13,0.26-0.16,0.33c0.11-0.24,0.22-0.48,0.33-0.71
			c0.2-0.41,0.43-0.81,0.67-1.2c0.24-0.39,0.86-1.16,0.19-0.38c0.67-0.78,1.37-1.53,2.14-2.21c0.17-0.15,0.36-0.29,0.52-0.44
			c0.57-0.52-0.61,0.39,0.04-0.03c0.45-0.29,0.88-0.61,1.33-0.9c0.91-0.57,1.86-1.09,2.83-1.57c0.56-0.27,1.12-0.53,1.69-0.78
			c-0.86,0.37,0.44-0.16,0.71-0.27c2.12-0.81,4.28-1.49,6.45-2.16c-1.33-3.16-2.67-6.33-4-9.49c-7.19,4.17-14.42,8.3-21.87,12.02
			c-1.9,0.95-3.82,1.88-5.75,2.77c-0.8,0.37-1.61,0.73-2.42,1.09c-0.48,0.21-0.97,0.42-1.46,0.64c-0.58,0.24-0.65,0.28-0.22,0.1
			c-0.32,0.14-0.65,0.27-0.97,0.4c-3.71,1.53-7.49,2.9-11.33,4.07c-3.95,1.2-7.98,2.17-12.06,2.85c-0.42,0.07-0.85,0.14-1.27,0.2
			c-0.23,0.03-1.33,0.18-0.4,0.06c-1.02,0.13-2.04,0.24-3.06,0.33c-2.05,0.18-4.11,0.27-6.16,0.27c-1.9,0-3.8-0.07-5.69-0.23
			c-0.52-0.04-1.04-0.1-1.56-0.15c-1.7-0.14,1.07,0.24-0.26-0.03c-0.89-0.18-1.78-0.36-2.65-0.64c-0.25-0.08-0.49-0.18-0.73-0.26
			c1.24,0.42,0.11,0.04-0.15-0.1c-0.14-0.07-0.92-0.42-0.95-0.57c0.16,0.13,0.32,0.26,0.47,0.38c-0.18-0.15-0.36-0.3-0.52-0.47
			c-0.08-0.08-0.16-0.17-0.24-0.25c0.44,0.62,0.5,0.69,0.19,0.24c-0.11-0.89-0.2,0.31,0.07,0.33c-0.04-0.11-0.07-0.22-0.11-0.33
			c-0.13-0.56-0.13-0.45-0.01,0.33c-0.02-0.29-0.02-0.58,0-0.87c-0.09,0.68-0.07,0.72,0.07,0.14c-0.07,0.15-0.14,0.3-0.2,0.45
			c0.13-0.26,0.27-0.51,0.42-0.76c0.33-0.48,0.32-0.49-0.03-0.03c0.19-0.23,0.4-0.46,0.61-0.68c0.63-0.67,1.33-1.28,2.04-1.86
			c1.91-1.56,3.88-3.04,5.83-4.55c4.19-3.27,8.38-6.53,12.57-9.8c-2.45-2.45-4.9-4.9-7.34-7.34c-6.11,4.94-12.96,9.91-20.05,14.48
			c-1.59,1.02-3.18,2.15-4.9,2.94c0.98-0.45-0.44,0.1-0.54,0.14c-0.46,0.18-0.66-0.11,0.04,0.04c-1.38-0.29,0.97,0.53-0.34-0.04
			c0.34,0.05,0.63,0.21,0.87,0.47c-0.39-0.42-0.36-0.36,0.1,0.17c-0.34-0.87-0.03,0.05,0.02,0.19c-0.13-0.38-0.21-0.77-0.33-1.16
			c-0.39-1.25,0.03,1.07-0.06-0.24c-0.03-0.4-0.06-0.81-0.08-1.21c-0.11-2.11-0.17-4.22-0.2-6.33c-0.14-8.36,0.21-16.72,1.04-25.04
			c0.2-2.01,0.44-4.02,0.69-6.02c0.23-1.79-0.15,0.98,0.11-0.8c0.05-0.36,0.1-0.73,0.15-1.09c0.18-1.27,0.38-2.54,0.59-3.81
			c0.66-4.08,1.45-8.14,2.34-12.17c2.06-9.24,4.73-18.33,7.98-27.21c-3.34,0-6.68,0-10.01,0c0.29,1.32,0.55,2.64,0.76,3.97
			c0.06,0.39,0.28,1.95,0.13,0.83c0.09,0.74,0.18,1.47,0.25,2.21c0.25,2.64,0.35,5.29,0.31,7.94c-0.05,2.64-0.26,5.27-0.57,7.89
			c-0.17,1.41,0.12-0.72-0.02,0.15c-0.06,0.36-0.11,0.73-0.17,1.09c-0.09,0.58-0.19,1.16-0.3,1.74c-0.24,1.3-0.51,2.6-0.81,3.89
			c-0.63,2.66-1.39,5.29-2.26,7.88c-0.41,1.2-0.84,2.38-1.29,3.56c-0.22,0.56-0.44,1.11-0.66,1.66c-0.53,1.34,0.27-0.6-0.08,0.21
			c-0.18,0.41-0.36,0.82-0.54,1.23c-2.22,4.96-4.85,9.73-7.83,14.27c-0.71,1.08-1.44,2.15-2.18,3.21c-0.4,0.56-0.8,1.12-1.2,1.67
			c-0.18,0.25-0.36,0.49-0.55,0.74c-0.09,0.12-0.91,1.21-0.56,0.75c0.45-0.59-0.47,0.6-0.44,0.56c-0.19,0.24-0.38,0.48-0.57,0.72
			c-0.38,0.48-0.77,0.95-1.16,1.42c-0.93,1.12-1.88,2.22-2.85,3.3c-3.67,4.1-7.63,7.95-11.83,11.5c-0.99,0.84-1.99,1.65-3,2.46
			c0.03-0.03-1.14,0.89-0.55,0.43c0.49-0.38-0.27,0.2-0.38,0.29c-0.6,0.46-1.21,0.91-1.83,1.35c-2.39,1.73-4.82,3.42-7.43,4.81
			c-0.6,0.32-1.2,0.61-1.81,0.91c-0.93,0.44-0.36,0.17-0.14,0.08c-0.31,0.13-0.62,0.24-0.93,0.36c-0.77,0.28-1.55,0.52-2.35,0.71
			c-0.31,0.08-0.63,0.14-0.94,0.2c-1.09,0.24,0.7,0.04-0.5,0.06c-0.63,0.01-1.24,0.03-1.87,0.01c-1.01-0.04-0.22-0.03,0,0.02
			c-0.31-0.06-0.61-0.12-0.91-0.2c0.06,0.02-1.41-0.44-0.72-0.19c0.62,0.22-0.53-0.26-0.58-0.29c-0.21-0.11-0.41-0.23-0.61-0.36
			c-0.1-0.06-0.2-0.13-0.29-0.19c-0.46-0.32-0.38-0.25,0.23,0.21c-0.12,0.06-1.11-1.03-1.2-1.12c-0.07-0.07-0.38-0.49-0.42-0.49
			c0.31,0.02,0.64,0.91,0.07,0.01c-0.14-0.22-0.54-1.34-0.76-1.41c0.09,0.03,0.43,1.21,0.16,0.34c-0.1-0.31-0.21-0.62-0.3-0.94
			c-0.15-0.54-0.26-1.09-0.37-1.64c-0.2-0.98,0.09,0.35,0.04,0.36c0,0-0.09-1-0.09-1.05c-0.07-1.21-0.04-2.42,0.06-3.63
			c0.02-0.25,0.05-0.5,0.07-0.75c0.1-1.18-0.18,0.96,0.02-0.12c0.11-0.63,0.22-1.27,0.35-1.9c0.27-1.28,0.6-2.54,0.98-3.79
			c0.4-1.31,0.85-2.6,1.35-3.87c0.09-0.24,0.2-0.47,0.29-0.71c0.15-0.41-0.41,0.92,0.07-0.16c0.28-0.62,0.56-1.24,0.85-1.85
			c1.57-3.27,0.17-6.32-3.1-7.63c-16.48-6.59-31.57,8.71-41.16,20.12c-2.46,2.93-5.14,5.67-8.06,8.13
			c-0.42,0.35-0.85,0.69-1.27,1.04c-0.45,0.38,0.06-0.04,0.13-0.1c-0.19,0.14-0.37,0.28-0.56,0.42c-0.8,0.59-1.63,1.17-2.47,1.71
			c-1.57,1.02-3.2,1.94-4.9,2.71c-0.2,0.09-0.4,0.18-0.6,0.27c0.06-0.03,0.8-0.3,0.24-0.11c-0.4,0.14-0.8,0.3-1.2,0.44
			c-0.85,0.29-1.72,0.54-2.6,0.73c-0.4,0.09-0.8,0.14-1.2,0.23c0.88-0.2,0.33-0.04-0.21,0c-0.86,0.07-1.71,0.05-2.56,0.01
			c-0.15-0.01-0.45,0.01-0.59-0.05c-0.01,0,1.01,0.22,0.41,0.05c-0.37-0.11-0.77-0.15-1.15-0.25c-0.38-0.1-0.76-0.21-1.14-0.34
			c-0.19-0.06-0.37-0.14-0.56-0.2c0.39,0.12,0.66,0.32,0.13,0.04c-0.75-0.39-1.47-0.81-2.17-1.27c-0.89-0.59,0.5,0.51-0.18-0.14
			c-0.31-0.3-0.63-0.58-0.93-0.9c-0.13-0.13-0.24-0.28-0.37-0.41c-0.47-0.5-0.1,0.04,0.12,0.19c-0.29-0.19-0.54-0.78-0.71-1.07
			c-0.22-0.37-0.41-0.75-0.62-1.13c-0.07-0.12-0.39-0.65-0.05-0.05c0.35,0.6-0.03-0.06-0.09-0.24c-0.29-0.83-0.51-1.65-0.7-2.5
			c-0.02-0.09-0.14-0.46-0.1-0.55c-0.08,0.16,0.09,1.06,0.04,0.27c-0.03-0.43-0.06-0.87-0.07-1.3c-0.01-0.43,0-0.87,0.03-1.3
			c0.01-0.18,0.05-0.37,0.04-0.56c-0.01-0.69-0.2,0.94-0.04,0.28c0.2-0.84,0.37-1.68,0.62-2.51c0.03-0.09,0.11-0.47,0.19-0.52
			c-0.15,0.11-0.44,0.9-0.09,0.22c0.19-0.38,0.38-0.77,0.6-1.14c0.22-0.37,0.48-0.71,0.71-1.08c-0.58,0.94,0.04-0.01,0.38-0.37
			c-2.72-2.1-5.44-4.19-8.15-6.29c-0.52,0.75-1.05,1.5-1.6,2.22c0.45-0.59,0.08-0.1-0.17,0.21c-0.24,0.3-0.48,0.59-0.73,0.88
			c-1.08,1.28-2.22,2.51-3.41,3.68c-1.19,1.17-2.44,2.29-3.74,3.35c-0.23,0.19-1.1,0.87-0.38,0.32c-0.36,0.28-0.73,0.55-1.1,0.82
			c-0.68,0.49-1.37,0.97-2.06,1.43c-1.4,0.92-2.84,1.78-4.31,2.57c-0.74,0.4-1.48,0.77-2.24,1.14c-0.41,0.2-0.83,0.39-1.24,0.58
			c-0.11,0.05-1.25,0.53-0.64,0.28c0.62-0.25-0.53,0.21-0.65,0.25c-0.43,0.17-0.85,0.33-1.28,0.48c-0.79,0.28-1.58,0.55-2.38,0.8
			c-1.67,0.52-3.37,0.94-5.08,1.3c2.19,1.67,4.38,3.34,6.57,5.01c0.03-0.55,0.06-1.11,0.11-1.66c0.02-0.22,0.23-1.6,0.01-0.27
			c0.16-0.95,0.32-1.9,0.55-2.84c0.22-0.94,0.49-1.87,0.8-2.78c0.13-0.39,0.27-0.78,0.41-1.17c0.1-0.26,0.2-0.52,0.3-0.77
			c-0.26,0.6-0.27,0.63-0.04,0.1c0.75-1.64,1.58-3.23,2.55-4.75c0.52-0.82,1.08-1.61,1.66-2.39c-0.74,1,0.19-0.22,0.35-0.42
			c0.31-0.37,0.63-0.74,0.95-1.1c1.25-1.39,2.61-2.69,4.06-3.87c1.03-0.84-0.41,0.26,0.42-0.34c0.34-0.24,0.67-0.49,1.01-0.72
			c0.8-0.55,1.62-1.06,2.46-1.54c0.84-0.48,1.7-0.93,2.57-1.33c0.25-0.12,0.5-0.23,0.75-0.34c-0.54,0.23-0.64,0.27-0.29,0.12
			c0.45-0.17,0.9-0.35,1.36-0.51c1.83-0.64,3.71-1.1,5.62-1.41c2.69-0.43,4.42-3.92,3.63-6.39
			C166.38,99.9,163.82,98.73,160.94,99.19L160.94,99.19z"/>
	</g>
</g>
<g>
	<g>
		<path d="M509.25,46.1c-0.94-2.09-1.88-4.18-2.83-6.27c-0.9-1.99-3.86-3.04-5.86-2.39c-2.36,0.76-3.54,2.62-3.81,5.01
			c-3.52,31.38,6.67,62.09,18.9,90.53c3.42,7.96,7.05,15.82,10.71,23.67c1.03-2.54,2.07-5.08,3.1-7.63
			c-0.74,0.19-1.48,0.36-2.23,0.51c-0.6,0.12-1.65,0.51-2.25,0.39c0.19-0.02,0.37-0.05,0.56-0.07c-0.21,0.03-0.41,0.05-0.62,0.07
			c-0.34,0.04-0.69,0.07-1.03,0.11c-0.76,0.07-1.52,0.12-2.28,0.15c-1.46,0.06-2.91,0.04-4.37-0.04c-0.76-0.04-1.52-0.11-2.28-0.19
			c-0.61-0.07-0.76-0.03-0.07,0.01c-0.4-0.02-0.84-0.12-1.23-0.19c-2.87-0.48-5.7-1.23-8.43-2.25c-0.39-0.15-0.78-0.3-1.16-0.45
			c-0.93-0.37,0.47,0.23-0.1-0.05c-0.69-0.33-1.39-0.64-2.07-0.98c-1.36-0.69-2.68-1.46-3.97-2.28c0.8,1.95,1.59,3.91,2.39,5.86
			c0.04-0.29,0.38-1.29,0.03-0.49c-0.34,0.78-0.09,0.18,0.05,0.01c0.33-0.42-0.46,0.52-0.4,0.51c-0.02,0.01,0.38-0.35,0.39-0.39
			c-0.01,0.05-0.93,0.58-0.49,0.38c0.27-0.12,0.95-0.43,1.16-0.64c-0.04,0.04-1.01,0.32-0.52,0.24c0.2-0.03,0.4-0.13,0.6-0.19
			c0.36-0.11,0.72-0.19,1.09-0.27c0.21-0.04,1.51-0.26,0.59-0.11c-0.89,0.14,0.53-0.03,0.74-0.04c4.73-0.27,9.5-0.22,14.24-0.32
			c9.72-0.21,19.45-0.41,29.17-0.62c5.57-0.12,11.14-0.24,16.7-0.35c2.71-0.06,5.32-2.35,5.19-5.19c-0.12-2.76-2.28-5.25-5.19-5.19
			c-10.47,0.22-20.94,0.44-31.41,0.67c-5.15,0.11-10.31,0.22-15.46,0.33c-2.66,0.06-5.32,0.11-7.98,0.17
			c-2.17,0.05-4.37-0.01-6.53,0.24c-4.98,0.57-11.14,2.74-11.97,8.51c-0.35,2.41,0.26,4.5,2.39,5.86
			c11.61,7.44,26.21,9.68,39.55,6.31c1.56-0.39,2.75-1.56,3.36-3.01c0.68-1.62,0.46-3.07-0.26-4.62
			c-3.23-6.93-6.45-13.88-9.51-20.89c-0.72-1.64-1.42-3.28-2.12-4.92c-0.6-1.42,0.39,0.95-0.2-0.48c-0.18-0.43-0.36-0.86-0.54-1.29
			c-0.42-1-0.83-2.01-1.24-3.02c-1.46-3.59-2.85-7.21-4.18-10.85c-2.57-7.08-4.86-14.26-6.7-21.56c-0.89-3.54-1.68-7.1-2.34-10.69
			c-0.33-1.79-0.62-3.58-0.89-5.38c-0.07-0.45-0.13-0.9-0.19-1.35c0.17,1.26-0.03-0.25-0.05-0.42c-0.13-1.05-0.25-2.1-0.35-3.15
			c-0.82-8.3-0.83-16.67,0.1-24.97c-3.23,0.87-6.45,1.75-9.68,2.62c0.94,2.09,1.88,4.18,2.83,6.27c1.12,2.48,4.92,3.27,7.1,1.86
			C509.95,51.55,510.44,48.76,509.25,46.1L509.25,46.1z"/>
	</g>
</g>
<g>
	<g>
		<path d="M590.3,148.91c25.64-4.42,47.53-23.75,55.83-48.27c1.39-4.1-2.79-6.99-6.39-6.39c-12.28,2.07-24.08,9.85-28.4,21.9
			c-3.84,10.73,0.01,24.35,9.96,30.37c11.74,7.1,27.08,1.64,37.39-5.58c9.54-6.67,16.93-15.9,22.42-26.09
			c6.22-11.54,10.31-24.18,13.18-36.94c1.47-6.53-7.92-9.11-10.01-2.76c-2.82,8.58-4.52,17.5-5.15,26.51
			c-0.57,8.13-0.54,16.87,1.47,24.82c1.73,6.82,5.87,13.73,13.1,15.63c8.04,2.1,17.11-2.42,23.67-6.77
			c7.3-4.84,13.42-11.28,17.8-18.87c-3.16-0.41-6.33-0.83-9.49-1.24c3.88,13.99,16.12,22.47,29.44,26.47
			c14.99,4.5,30.98,3.81,46.32,1.84c18.75-2.41,36.94-7.34,54.33-14.74c4.23-1.8,8.4-3.75,12.5-5.84c4.04-2.06,8.74-4.31,10.23-8.96
			c1.65-5.13-1.44-9.5-5.39-12.41c-3.48-2.56-7.39-4.66-11.2-6.69c-18.35-9.82-38.46-15.78-59.15-17.81c0,3.46,0,6.92,0,10.38
			c49.07-6.3,98.48-9.97,147.94-10.95c14.09-0.28,28.19-0.34,42.29-0.18c6.68,0.07,6.69-10.31,0-10.38
			c-49.47-0.53-98.97,1.59-148.21,6.38c-14.03,1.37-28.04,2.95-42.02,4.75c-2.78,0.36-5.19,2.13-5.19,5.19
			c0,3.04,2.39,4.92,5.19,5.19c15.94,1.57,31.78,5.86,46.31,12.6c3.64,1.69,7.21,3.52,10.7,5.49c3.01,1.7,6.78,3.78,8.72,5.64
			c-0.02-0.03-0.04-0.06-0.06-0.09c0.31,0.56,0.37,0.62,0.17,0.2c0,0.01,0.04-0.67,0.06-0.61c-0.07-0.28,0.89-0.43-0.16,0.26
			c0.02-0.01,0.94-0.84-0.34,0.21c-0.87,0.71-3.07,1.76-4.48,2.49c-3.76,1.94-7.59,3.76-11.48,5.46
			c-15.21,6.63-31.43,11.14-47.83,13.62c-7.86,1.19-15.87,1.9-23.83,1.96c-6.44,0.05-11.73-0.42-17.5-1.68
			c-3.37-0.73-6.64-1.74-9.87-2.96c-0.97-0.37-0.41-0.16-0.19-0.07c-0.47-0.2-0.94-0.41-1.41-0.63c-0.77-0.36-1.53-0.74-2.27-1.14
			c-1.39-0.74-2.74-1.56-4.04-2.46c-0.27-0.19-0.53-0.38-0.8-0.57c-0.29-0.22-0.26-0.19,0.08,0.07c-0.19-0.15-0.38-0.3-0.57-0.46
			c-0.56-0.47-1.11-0.94-1.64-1.44c-0.58-0.55-1.15-1.12-1.69-1.71c-0.21-0.24-0.43-0.48-0.63-0.72c-0.04-0.05-0.98-1.26-0.38-0.45
			c-0.96-1.3-1.81-2.67-2.52-4.11c-0.15-0.29-0.28-0.59-0.42-0.89c0.31,0.67-0.03-0.06-0.14-0.36c-0.32-0.87-0.6-1.75-0.85-2.65
			c-1.19-4.28-7.25-5.12-9.49-1.24c-3.01,5.22-6.98,9.89-11.79,13.54c-2.37,1.8-5.21,3.51-7.99,4.87c-2.44,1.19-5.51,2.64-8.49,2.61
			c-0.74-0.01-1.25-0.11-1.97-0.3c-0.16-0.04-0.89-0.4-0.17-0.05c-0.22-0.11-0.44-0.23-0.66-0.36c-0.1-0.06-0.96-0.63-0.5-0.29
			c0.41,0.3-0.22-0.19-0.24-0.22c-0.23-0.23-0.47-0.48-0.71-0.7c-0.63-0.58,0,0.09-0.3-0.32c-0.36-0.48-0.67-1-0.97-1.52
			c-0.11-0.19-0.88-1.74-0.62-1.15c-0.57-1.33-0.97-2.76-1.31-4.16c-0.73-3.09-0.86-5.09-1.06-8.69c-0.21-3.77-0.21-7.55,0-11.33
			c0.47-8.61,2.18-17.07,4.88-25.26c-3.34-0.92-6.68-1.84-10.01-2.76c-4.31,19.2-11.2,38.87-25.46,52.38
			c-6.7,6.35-16.27,12.36-26.26,11.83c-2.25-0.12-4.47-0.84-6.46-2.08c-0.22-0.13-0.43-0.28-0.63-0.43c0.09,0.07,0.5,0.41,0.05,0.03
			c-0.39-0.33-0.76-0.67-1.11-1.03c-0.41-0.42-0.82-0.86-1.18-1.32c0.46,0.6-0.38-0.61-0.5-0.82c-1.28-2.07-1.58-2.91-2.12-5.44
			c-0.05-0.24-0.28-1.83-0.19-0.94c-0.06-0.52-0.09-1.04-0.11-1.57c-0.02-0.52-0.02-1.05-0.01-1.57c0.01-0.26,0.03-0.52,0.04-0.79
			c0.01-0.16,0.12-1.32,0.01-0.44c0.36-2.87,1.05-4.51,2.28-6.6c1.35-2.29,2.82-3.92,5.03-5.79c3.95-3.35,9.29-5.37,14.84-6.3
			c-2.13-2.13-4.26-4.26-6.39-6.39c-3.52,10.39-10.1,19.73-18.72,27.1c-8.35,7.14-18.69,11.99-29.85,13.92
			c-2.77,0.48-4.32,3.87-3.63,6.39C584.72,148.21,587.53,149.39,590.3,148.91L590.3,148.91z"/>
	</g>
</g>
</svg>
