<?xml version="1.0" encoding="utf-8"?>
<!-- Generator: Adobe Illustrator 24.0.2, SVG Export Plug-In . SVG Version: 6.00 Build 0)  -->
<svg version="1.1" id="Layer_1" xmlns="http://www.w3.org/2000/svg" xmlns:xlink="http://www.w3.org/1999/xlink" x="0px" y="0px"
	 viewBox="0 0 1000 200" style="enable-background:new 0 0 1000 200;" xml:space="preserve">
<style type="text/css">
	.st0{fill:#FFFFFF;}
</style>
<g>
	<g>
		<path class="st0" d="M27.43,94.06c-1.87-7.89-3.74-15.77-5.61-23.66c-0.59-2.5-3.22-4.02-5.66-3.69
			c-2.66,0.36-4.26,2.47-4.47,5.06c-1.11,13.46-1.12,27.01,0,40.47c0.59,7.11,1.49,14.19,2.66,21.23
			c0.92,5.51,1.98,11.03,3.84,16.31c2.23,6.32,5.48,12.34,10.49,16.89c1.56,1.41,3.65,1.9,5.63,1.07c2.01-0.85,2.97-2.6,3.17-4.71
			c2.01-21.27,0.12-42.96-5.41-63.59c-1.56-5.8-3.41-11.51-5.55-17.12c-3.31,0.91-6.63,1.83-9.94,2.74
			c4.2,10.83,10.1,23.64,22.51,26.72c13.7,3.39,25.31-6.9,33.58-16.48c5.67-6.56,11.23-13.22,16.84-19.83
			c-2.93-1.21-5.87-2.43-8.8-3.64c0.29,11.47,0.99,22.93,2.11,34.35c0.57,5.83,1.2,11.67,2.06,17.47
			c0.81,5.47,2.43,10.82,6.09,15.09c3.94,4.59,10.38,7.09,16.31,5.49c2.6-0.7,4.46-3.7,3.6-6.34c-0.86-2.67-3.55-4.36-6.34-3.6
			c-0.23,0.06-0.47,0.11-0.7,0.17c-1.03,0.27,0.32-0.09,0.31-0.04c-0.03,0.16-1.27-0.08-1.42-0.01c0.11-0.05,1.25,0.25,0.32,0.03
			c-0.17-0.04-0.35-0.08-0.52-0.12c-0.23-0.06-0.46-0.13-0.69-0.2c-0.87-0.28-0.15-0.24,0.05,0.06c-0.15-0.22-1.05-0.53-1.29-0.68
			c-0.21-0.13-0.41-0.27-0.62-0.4c-0.64-0.4,0.17-0.09,0.15,0.14c0.01-0.11-0.9-0.79-0.97-0.86c-0.32-0.32-0.95-0.8-1.13-1.23
			c0.33,0.81,0.35,0.5,0.14,0.16c-0.14-0.23-0.29-0.44-0.43-0.67c-0.3-0.48-0.57-0.99-0.82-1.5c-0.09-0.19-0.18-0.39-0.27-0.58
			c-0.34-0.68,0.26,0.78,0.03,0.05c-0.19-0.61-0.43-1.2-0.62-1.82c-0.65-2.17-1.17-4.51-1.36-6.76c0.1,1.2-0.06-0.52-0.1-0.83
			c-0.07-0.57-0.14-1.15-0.21-1.72c-0.17-1.39-0.34-2.79-0.49-4.18c-0.3-2.62-0.57-5.25-0.83-7.88c-0.51-5.26-0.93-10.53-1.26-15.8
			c-0.37-5.93-0.63-11.87-0.78-17.81c-0.05-2.07-1.25-3.9-3.17-4.71c-1.77-0.75-4.3-0.5-5.63,1.07
			c-4.72,5.56-9.44,11.11-14.16,16.67c-2.01,2.36-4,4.73-6.14,6.97c-0.92,0.97-1.87,1.92-2.85,2.83c-0.49,0.46-0.98,0.91-1.48,1.34
			c-0.3,0.26-0.6,0.52-0.91,0.78c-0.11,0.09-1.29,1.05-0.71,0.59c0.63-0.5-0.39,0.28-0.42,0.31c-0.31,0.23-0.63,0.46-0.95,0.68
			c-0.53,0.36-1.07,0.71-1.62,1.05c-0.54,0.33-1.09,0.64-1.65,0.93c-0.33,0.17-0.67,0.34-1.01,0.5c-0.22,0.11-0.45,0.21-0.68,0.31
			c0.18-0.08,0.37-0.16,0.55-0.24c-0.44,0.36-1.36,0.5-1.9,0.66c-0.64,0.19-1.28,0.35-1.94,0.47c-0.12,0.02-0.56,0.15-0.71,0.12
			c0.22-0.03,0.44-0.06,0.65-0.09c-0.24,0.03-0.48,0.05-0.72,0.06c-0.73,0.05-1.46,0.05-2.19,0c-0.12-0.01-0.25-0.02-0.37-0.03
			c-0.58-0.06-0.49-0.05,0.26,0.05c-0.12-0.08-0.57-0.1-0.75-0.13c-0.68-0.14-1.36-0.32-2.02-0.54c-0.21-0.07-0.42-0.15-0.63-0.23
			c-1.1-0.39,1.04,0.54,0.01,0c-0.59-0.31-1.17-0.6-1.74-0.94c-0.09-0.05-1.38-0.9-1.36-0.93c0.02-0.02,0.94,0.77,0.01-0.02
			c-0.17-0.14-0.34-0.29-0.5-0.44c-1.01-0.91-1.9-1.91-2.77-2.95c-0.33-0.39-0.43-0.17,0.17,0.23c-0.31-0.21-0.6-0.82-0.81-1.12
			c-0.4-0.58-0.78-1.17-1.15-1.76c-0.75-1.21-1.43-2.46-2.08-3.74c-0.65-1.28-1.25-2.58-1.82-3.9c-0.12-0.28-0.7-1.3-0.04-0.08
			c-0.17-0.31-0.27-0.66-0.4-0.98c-0.31-0.76-0.6-1.52-0.9-2.28c-0.97-2.51-3.51-4.52-6.34-3.6c-2.45,0.79-4.63,3.64-3.6,6.34
			c3.73,9.78,6.59,19.88,8.52,30.16c0.48,2.57,0.91,5.15,1.28,7.74c0.04,0.3,0.09,0.61,0.13,0.91c-0.03-0.2-0.13-1.01,0,0
			c0.08,0.61,0.15,1.22,0.23,1.83c0.16,1.38,0.31,2.75,0.44,4.13c0.49,5.13,0.75,10.28,0.78,15.44c0.04,5.92-0.23,11.85-0.78,17.74
			c2.93-1.21,5.87-2.43,8.8-3.64c-0.96-0.87-1.86-1.79-2.7-2.78c-0.14-0.16-0.38-0.4-0.49-0.59c0.61,1.1,0.04,0.05-0.12-0.18
			c-0.41-0.57-0.8-1.16-1.18-1.76c-0.65-1.04-1.24-2.11-1.78-3.21c-0.27-0.56-0.63-1.17-0.82-1.76c0.33,1.06,0.16,0.41,0.07,0.15
			c-0.17-0.43-0.34-0.85-0.5-1.28c-1.9-5.09-3-10.44-3.93-15.79c-0.26-1.52-0.51-3.05-0.75-4.58c-0.11-0.72-0.22-1.45-0.32-2.17
			c-0.07-0.48-0.14-0.97-0.2-1.45c-0.16-1.14,0.08,0.68-0.08-0.56c-0.41-3.23-0.77-6.46-1.06-9.7c-0.58-6.48-0.9-12.99-0.96-19.5
			C21.1,86.72,21.38,79.23,22,71.77c-3.38,0.46-6.75,0.91-10.13,1.37c1.87,7.89,3.74,15.77,5.61,23.66c0.62,2.63,3.76,4.44,6.34,3.6
			C26.56,99.51,28.09,96.87,27.43,94.06L27.43,94.06z"/>
	</g>
</g>
<g>
	<g>
		<path class="st0" d="M159.9,99.65c-18.06,2.92-32.17,19.68-32.99,37.74c-0.16,3.54,3.41,5.62,6.53,4.97
			c15.02-3.11,28.3-12.29,36.95-24.88c1.45-2.12,0.57-5.18-1.33-6.65c-1.97-1.52-5-1.48-6.77,0.4c-5.43,5.76-6.91,14.56-3.9,21.87
			c3.31,8.03,11.42,13.19,20.19,12.42c8.75-0.77,16.42-5.64,22.84-11.36c6.23-5.54,10.96-12.49,17.22-18.02
			c0.42-0.37,0.84-0.73,1.27-1.09c0.18-0.15,0.36-0.3,0.55-0.45c-0.03,0.02,1.05-0.83,0.59-0.47c-0.43,0.33,0.19-0.14,0.22-0.16
			c0.25-0.18,0.5-0.37,0.75-0.55c0.5-0.35,1.01-0.7,1.52-1.03c0.88-0.57,1.78-1.1,2.71-1.59c0.52-0.27,1.05-0.53,1.58-0.77
			c0.08-0.04,0.75-0.3,0.18-0.08c-0.58,0.23,0.28-0.1,0.38-0.13c0.99-0.36,2-0.66,3.03-0.88c0.27-0.06,0.55-0.09,0.82-0.15
			c-0.39,0.1-0.77,0.07-0.14,0.02c0.48-0.04,0.96-0.08,1.44-0.08c0.55-0.01,1.1,0.01,1.66,0.05c0.21,0.02,0.41,0.04,0.62,0.06
			c-0.44-0.04-0.71-0.12-0.12,0.01c1.15,0.26,2.25,0.57,3.34,1.01c-1.03-2.52-2.05-5.05-3.08-7.57c-2.28,4.76-4.17,9.79-4.96,15.03
			c-0.81,5.41-0.77,11.21,2.1,16.06c3.32,5.61,9.86,8.6,16.28,7.87c6.94-0.79,12.94-4.5,18.47-8.53
			c19.57-14.27,35.6-34.35,42.69-57.73c3.94-12.99,4.69-26.79,1.78-40.06c-0.46-2.11-2.81-3.88-4.97-3.78
			c-2.41,0.11-4.16,1.56-4.97,3.78c-6.31,17.24-10.32,35.23-12.15,53.49c-0.91,9.07-1.24,18.2-0.98,27.32
			c0.13,4.41,0.01,9.23,3.02,12.79c3.75,4.43,9.74,3.47,14.24,0.89c4.39-2.51,8.59-5.5,12.71-8.43c4.39-3.13,8.68-6.41,12.87-9.81
			c2.11-1.7,1.9-5.54,0-7.29c-2.27-2.08-5.01-1.78-7.29,0c-3.93,3.06-7.86,6.13-11.79,9.19c-3.69,2.88-7.95,5.54-10.58,9.51
			c-2.78,4.2-2.27,9.84,1.31,13.4c3.02,3,7.26,4.12,11.35,4.61c18.2,2.21,36.33-3.53,52.65-11.11c9.25-4.3,18.12-9.34,26.94-14.46
			c2.23-1.29,3.09-4.11,2.11-6.44c-0.96-2.28-3.61-3.75-6.08-2.98c-9.6,2.98-19.6,6.89-23.63,16.89c-1.8,4.47-1.73,9.55,0.2,13.94
			c2.12,4.84,7.01,7.6,12.02,8.58c11.08,2.16,22.88,1.55,33.85-0.89c4.94-1.1,10.56-2.35,14.28-6.04c1.95-1.94,3.23-4.63,3.03-7.42
			c-0.24-3.41-2.26-6.02-5.02-7.89c-2.42-1.63-5.38-2.69-8.13-3.59c-2.99-0.97-6.07-1.53-9.19-1.9c-5.92-0.7-12.03-0.12-17.75,1.52
			c-2.59,0.75-4.46,3.67-3.6,6.34c0.85,2.63,3.57,4.4,6.34,3.6c0.96-0.28,1.93-0.53,2.91-0.74c0.49-0.1,0.98-0.2,1.48-0.29
			c0.25-0.04,0.5-0.07,0.74-0.12c0.83-0.16-0.72,0.06,0.12-0.02c2.17-0.21,4.32-0.34,6.51-0.25c1,0.04,2,0.15,3,0.23
			c0.61,0.05-0.02-0.01-0.13-0.02c0.25,0.04,0.5,0.07,0.74,0.11c0.58,0.09,1.15,0.2,1.73,0.32c2.05,0.42,4.06,1,6.01,1.73
			c0.23,0.09,0.47,0.18,0.7,0.27c0.02,0.01,0.78,0.32,0.31,0.12c-0.47-0.2,0.28,0.13,0.3,0.14c0.3,0.14,0.61,0.28,0.91,0.43
			c0.37,0.18,0.73,0.37,1.09,0.57c0.17,0.1,0.35,0.24,0.53,0.33c0.59,0.27-0.5-0.53-0.06-0.07c0.12,0.13,0.29,0.31,0.44,0.41
			c-0.08-0.05-0.42-0.76-0.2-0.27c0.25,0.54-0.09-0.34-0.09-0.36c0.01,0.13,0.23,0.82,0.07,0.06c-0.14-0.66-0.03-0.17-0.04,0.03
			c0,0.01,0.19-1.09,0.04-0.53c-0.15,0.56,0.17-0.47,0.2-0.44c0.01,0.01-0.32,0.58-0.37,0.6c-0.04,0.02,0.73-0.63,0.22-0.35
			c-0.13,0.07-0.3,0.29-0.41,0.39c-0.65,0.65,0.61-0.34-0.21,0.14c-0.35,0.2-0.69,0.42-1.05,0.61c-0.18,0.09-0.37,0.17-0.55,0.27
			c-0.63,0.35,0.8-0.27,0.12-0.05c-2.13,0.69-4.27,1.33-6.45,1.85c-2.21,0.53-4.45,0.97-6.7,1.32c-0.2,0.03-1.51,0.21-0.79,0.12
			c-0.54,0.07-1.09,0.13-1.63,0.19c-1.18,0.13-2.36,0.23-3.54,0.3c-4.64,0.3-9.3,0.2-13.92-0.29c-0.54-0.06-1.09-0.12-1.63-0.19
			c0.81,0.1-0.3-0.05-0.56-0.09c-1.01-0.17-2.01-0.37-2.98-0.66c-0.29-0.09-1.6-0.61-0.73-0.21c-0.42-0.2-0.82-0.42-1.22-0.65
			c-0.78-0.44,0.16,0.29-0.37-0.25c-0.16-0.16-1.07-1.07-0.6-0.57c0.46,0.49-0.2-0.34-0.32-0.53c-0.11-0.2-0.51-1.2-0.3-0.52
			c0.23,0.71-0.11-0.41-0.16-0.59c-0.09-0.32-0.34-0.94-0.27-1.26c0.01-0.03,0.03,1.06,0.08,0.45c0.02-0.18-0.03-0.38-0.03-0.56
			c-0.01-0.38-0.01-0.76,0.01-1.14c0.01-0.19,0.05-0.38,0.04-0.57c-0.01-0.62-0.06,0.44-0.06,0.42c-0.08-0.33,0.19-1,0.28-1.33
			c0.13-0.5,0.36-0.99,0.46-1.49c0.11-0.54-0.13,0.26-0.16,0.33c0.11-0.24,0.21-0.47,0.33-0.71c0.2-0.41,0.43-0.8,0.66-1.19
			c0.24-0.38,0.85-1.15,0.19-0.37c0.66-0.78,1.36-1.51,2.13-2.19c0.17-0.15,0.35-0.29,0.52-0.44c0.57-0.51-0.61,0.39,0.04-0.03
			c0.45-0.29,0.87-0.61,1.32-0.89c0.91-0.57,1.85-1.08,2.81-1.55c0.55-0.27,1.12-0.53,1.68-0.77c-0.85,0.37,0.44-0.16,0.71-0.27
			c2.1-0.8,4.25-1.48,6.4-2.15c-1.32-3.14-2.65-6.28-3.97-9.42c-7.14,4.14-14.32,8.24-21.71,11.93c-1.89,0.94-3.79,1.86-5.71,2.75
			c-0.8,0.37-1.6,0.73-2.4,1.08c-0.48,0.21-0.96,0.42-1.44,0.63c-0.57,0.24-0.64,0.28-0.22,0.1c-0.32,0.14-0.64,0.27-0.97,0.4
			c-3.69,1.52-7.44,2.88-11.25,4.04c-3.93,1.19-7.92,2.16-11.97,2.83c-0.42,0.07-0.84,0.13-1.26,0.2c-0.23,0.03-1.32,0.18-0.4,0.06
			c-1.01,0.13-2.02,0.24-3.04,0.32c-2.03,0.18-4.08,0.27-6.12,0.27c-1.89,0-3.77-0.07-5.65-0.23c-0.52-0.04-1.03-0.1-1.55-0.15
			c-1.68-0.14,1.06,0.24-0.26-0.03c-0.89-0.18-1.76-0.36-2.63-0.64c-0.24-0.08-0.48-0.17-0.73-0.26c1.23,0.42,0.11,0.04-0.15-0.1
			c-0.13-0.07-0.91-0.41-0.95-0.56c0.16,0.13,0.31,0.25,0.47,0.38c-0.18-0.15-0.35-0.3-0.52-0.47c-0.08-0.08-0.16-0.17-0.24-0.25
			c0.44,0.61,0.5,0.69,0.19,0.23c-0.11-0.88-0.2,0.31,0.07,0.32c-0.04-0.11-0.07-0.22-0.11-0.33c-0.13-0.55-0.13-0.45-0.01,0.32
			c-0.02-0.29-0.02-0.58,0-0.86c-0.09,0.67-0.07,0.72,0.07,0.14c-0.07,0.15-0.14,0.3-0.2,0.45c0.13-0.26,0.26-0.51,0.42-0.75
			c0.33-0.48,0.32-0.49-0.03-0.03c0.19-0.23,0.39-0.46,0.6-0.67c0.63-0.66,1.32-1.27,2.03-1.84c1.89-1.55,3.86-3.02,5.79-4.52
			c4.16-3.24,8.32-6.49,12.48-9.73c-2.43-2.43-4.86-4.86-7.29-7.29c-6.06,4.91-12.87,9.84-19.9,14.37
			c-1.58,1.02-3.15,2.14-4.86,2.92c0.98-0.45-0.44,0.1-0.54,0.14c-0.46,0.18-0.66-0.11,0.04,0.04c-1.37-0.29,0.96,0.53-0.34-0.04
			c0.34,0.05,0.63,0.21,0.86,0.47c-0.39-0.41-0.35-0.36,0.1,0.16c-0.34-0.87-0.03,0.05,0.02,0.19c-0.13-0.38-0.21-0.77-0.33-1.15
			c-0.39-1.25,0.03,1.07-0.06-0.24c-0.03-0.4-0.06-0.8-0.08-1.2c-0.11-2.09-0.17-4.19-0.2-6.29c-0.14-8.3,0.21-16.6,1.04-24.86
			c0.2-2,0.44-3.99,0.69-5.98c0.22-1.78-0.14,0.98,0.11-0.8c0.05-0.36,0.1-0.72,0.15-1.08c0.18-1.26,0.38-2.53,0.58-3.79
			c0.66-4.05,1.44-8.08,2.33-12.09c2.04-9.17,4.7-18.19,7.93-27.02c-3.31,0-6.63,0-9.94,0c0.29,1.31,0.54,2.62,0.76,3.94
			c0.06,0.38,0.27,1.94,0.13,0.82c0.09,0.73,0.18,1.46,0.25,2.19c0.25,2.62,0.35,5.25,0.3,7.89c-0.05,2.62-0.25,5.23-0.56,7.84
			c-0.17,1.4,0.12-0.72-0.02,0.14c-0.06,0.36-0.11,0.72-0.16,1.08c-0.09,0.58-0.19,1.15-0.3,1.72c-0.24,1.29-0.51,2.58-0.81,3.86
			c-0.62,2.64-1.38,5.25-2.25,7.82c-0.4,1.19-0.83,2.37-1.29,3.54c-0.21,0.55-0.44,1.1-0.66,1.65c-0.53,1.33,0.27-0.6-0.08,0.2
			c-0.18,0.41-0.35,0.82-0.54,1.22c-2.2,4.92-4.82,9.66-7.77,14.17c-0.7,1.07-1.43,2.14-2.17,3.18c-0.39,0.56-0.79,1.11-1.2,1.66
			c-0.18,0.24-0.36,0.49-0.54,0.73c-0.09,0.12-0.9,1.2-0.56,0.75c0.45-0.59-0.47,0.59-0.44,0.56c-0.19,0.24-0.38,0.48-0.57,0.71
			c-0.38,0.47-0.76,0.94-1.15,1.41c-0.92,1.11-1.86,2.2-2.83,3.28c-3.64,4.07-7.58,7.89-11.75,11.42c-0.98,0.83-1.98,1.64-2.98,2.44
			c0.03-0.03-1.14,0.88-0.55,0.43c0.49-0.38-0.26,0.2-0.38,0.28c-0.6,0.45-1.2,0.9-1.81,1.34c-2.37,1.72-4.79,3.4-7.38,4.78
			c-0.59,0.32-1.19,0.61-1.8,0.9c-0.92,0.44-0.36,0.17-0.14,0.08c-0.31,0.13-0.62,0.24-0.93,0.36c-0.76,0.28-1.54,0.52-2.33,0.71
			c-0.31,0.08-0.62,0.13-0.94,0.2c-1.08,0.24,0.69,0.04-0.5,0.06c-0.62,0.01-1.23,0.03-1.86,0.01c-1-0.04-0.22-0.03,0,0.02
			c-0.3-0.06-0.61-0.12-0.9-0.2c0.06,0.02-1.4-0.44-0.72-0.19c0.62,0.22-0.52-0.26-0.58-0.29c-0.21-0.11-0.41-0.23-0.61-0.35
			c-0.1-0.06-0.19-0.12-0.29-0.19c-0.45-0.32-0.38-0.25,0.22,0.21c-0.12,0.06-1.1-1.02-1.19-1.12c-0.07-0.07-0.38-0.48-0.42-0.49
			c0.31,0.02,0.63,0.9,0.07,0.01c-0.14-0.22-0.54-1.33-0.75-1.4c0.09,0.03,0.43,1.21,0.16,0.34c-0.1-0.31-0.21-0.62-0.3-0.93
			c-0.15-0.54-0.25-1.08-0.37-1.62c-0.2-0.97,0.09,0.35,0.04,0.36c0,0-0.09-0.99-0.09-1.04c-0.07-1.2-0.04-2.4,0.06-3.6
			c0.02-0.25,0.05-0.49,0.07-0.74c0.1-1.17-0.18,0.95,0.02-0.12c0.11-0.63,0.22-1.26,0.35-1.88c0.27-1.27,0.6-2.52,0.97-3.76
			c0.4-1.3,0.85-2.58,1.34-3.84c0.09-0.24,0.2-0.47,0.28-0.71c0.15-0.4-0.41,0.91,0.07-0.16c0.28-0.62,0.56-1.23,0.85-1.84
			c1.56-3.25,0.17-6.27-3.08-7.57c-16.37-6.54-31.34,8.65-40.86,19.97c-2.44,2.91-5.1,5.63-8.01,8.08
			c-0.41,0.35-0.84,0.68-1.26,1.03c-0.45,0.38,0.06-0.04,0.13-0.09c-0.18,0.14-0.37,0.28-0.55,0.42c-0.8,0.59-1.61,1.16-2.45,1.7
			c-1.56,1.01-3.18,1.92-4.86,2.69c-0.2,0.09-0.39,0.18-0.59,0.26c0.06-0.03,0.79-0.3,0.24-0.11c-0.4,0.13-0.79,0.3-1.19,0.44
			c-0.85,0.29-1.71,0.53-2.58,0.73c-0.39,0.09-0.8,0.14-1.19,0.23c0.88-0.19,0.33-0.04-0.21,0c-0.85,0.07-1.69,0.05-2.54,0.01
			c-0.15-0.01-0.45,0.01-0.58-0.05c-0.01,0,1,0.22,0.41,0.05c-0.37-0.11-0.77-0.15-1.14-0.24c-0.38-0.1-0.76-0.21-1.13-0.34
			c-0.19-0.06-0.37-0.14-0.56-0.2c0.39,0.12,0.66,0.31,0.12,0.04c-0.75-0.38-1.46-0.8-2.16-1.26c-0.88-0.58,0.5,0.51-0.17-0.14
			c-0.31-0.3-0.63-0.58-0.92-0.89c-0.13-0.13-0.24-0.27-0.37-0.41c-0.47-0.5-0.1,0.04,0.12,0.19c-0.28-0.19-0.53-0.78-0.71-1.06
			c-0.22-0.37-0.41-0.75-0.62-1.12c-0.07-0.12-0.39-0.65-0.05-0.05c0.35,0.6-0.03-0.06-0.09-0.24c-0.28-0.82-0.5-1.64-0.69-2.48
			c-0.02-0.09-0.14-0.46-0.1-0.55c-0.08,0.16,0.09,1.06,0.04,0.27c-0.03-0.43-0.06-0.86-0.07-1.29c-0.01-0.43,0-0.86,0.03-1.29
			c0.01-0.18,0.05-0.37,0.04-0.55c-0.01-0.68-0.2,0.94-0.04,0.27c0.2-0.84,0.37-1.66,0.62-2.49c0.03-0.09,0.11-0.46,0.18-0.52
			c-0.15,0.11-0.43,0.89-0.09,0.22c0.19-0.38,0.38-0.76,0.6-1.13c0.22-0.37,0.48-0.71,0.7-1.07c-0.58,0.94,0.04-0.01,0.38-0.37
			c-2.7-2.08-5.4-4.16-8.1-6.25c-0.51,0.75-1.04,1.48-1.59,2.21c0.44-0.58,0.08-0.1-0.17,0.2c-0.24,0.29-0.48,0.58-0.72,0.87
			c-1.07,1.27-2.2,2.49-3.39,3.65c-1.19,1.16-2.42,2.27-3.71,3.33c-0.23,0.19-1.09,0.86-0.38,0.32c-0.36,0.28-0.72,0.55-1.09,0.81
			c-0.67,0.49-1.36,0.96-2.05,1.42c-1.39,0.91-2.82,1.77-4.28,2.55c-0.73,0.39-1.47,0.77-2.22,1.13c-0.41,0.2-0.82,0.39-1.23,0.57
			c-0.11,0.05-1.25,0.53-0.63,0.28c0.61-0.25-0.53,0.21-0.64,0.25c-0.42,0.16-0.85,0.32-1.27,0.48c-0.78,0.28-1.57,0.55-2.36,0.79
			c-1.66,0.51-3.34,0.94-5.05,1.29c2.18,1.66,4.35,3.31,6.53,4.97c0.03-0.55,0.06-1.1,0.11-1.65c0.02-0.21,0.23-1.58,0.01-0.27
			c0.16-0.95,0.32-1.89,0.54-2.82c0.22-0.93,0.49-1.85,0.79-2.76c0.13-0.39,0.27-0.78,0.41-1.16c0.1-0.26,0.19-0.51,0.3-0.77
			c-0.26,0.6-0.27,0.63-0.04,0.1c0.75-1.62,1.57-3.2,2.53-4.71c0.52-0.81,1.07-1.6,1.64-2.37c-0.73,0.99,0.19-0.22,0.35-0.41
			c0.31-0.37,0.62-0.73,0.95-1.09c1.24-1.38,2.59-2.67,4.03-3.84c1.02-0.84-0.41,0.25,0.42-0.33c0.34-0.24,0.67-0.48,1.01-0.72
			c0.79-0.54,1.61-1.05,2.44-1.53c0.83-0.48,1.68-0.92,2.55-1.32c0.25-0.12,0.5-0.23,0.75-0.34c-0.54,0.22-0.63,0.27-0.28,0.12
			c0.45-0.16,0.89-0.35,1.35-0.51c1.82-0.64,3.68-1.1,5.58-1.4c2.67-0.43,4.39-3.89,3.6-6.34
			C165.31,100.36,162.76,99.19,159.9,99.65L159.9,99.65z"/>
	</g>
</g>
<g>
	<g>
		<path class="st0" d="M505.71,46.94c-0.94-2.08-1.87-4.15-2.81-6.23c-0.89-1.98-3.83-3.01-5.82-2.37
			c-2.34,0.76-3.52,2.61-3.78,4.97c-3.49,31.09,6.58,61.51,18.68,89.69c3.42,7.96,7.06,15.83,10.72,23.68
			c1.03-2.52,2.05-5.05,3.08-7.57c-0.73,0.19-1.47,0.36-2.22,0.51c-0.6,0.12-1.64,0.51-2.24,0.39c0.18-0.02,0.37-0.05,0.55-0.07
			c-0.2,0.03-0.41,0.05-0.62,0.07c-0.34,0.04-0.68,0.07-1.03,0.11c-0.75,0.07-1.51,0.12-2.27,0.15c-1.45,0.06-2.89,0.04-4.34-0.04
			c-0.76-0.04-1.51-0.11-2.27-0.19c-0.6-0.06-0.76-0.03-0.07,0.01c-0.4-0.02-0.83-0.12-1.23-0.19c-2.85-0.48-5.66-1.23-8.37-2.24
			c-0.39-0.14-0.77-0.3-1.16-0.45c-0.92-0.36,0.47,0.23-0.1-0.05c-0.68-0.33-1.38-0.63-2.05-0.97c-1.35-0.68-2.66-1.45-3.94-2.26
			c0.79,1.94,1.58,3.88,2.37,5.82c0.04-0.29,0.38-1.28,0.03-0.49c-0.34,0.78-0.08,0.17,0.05,0.01c0.33-0.41-0.46,0.52-0.4,0.5
			c0.04-0.01,0.39-0.41,0.39-0.39c-0.01,0.05-0.92,0.58-0.49,0.38c0.33-0.15,0.7-0.39,1.02-0.57c0.54-0.32-1.01,0.26-0.38,0.18
			c0.14-0.02,0.31-0.1,0.44-0.15c0.36-0.11,0.72-0.2,1.08-0.28c0.33-0.07,0.79-0.07,1.11-0.2c-0.87,0.36-0.91,0.1-0.41,0.07
			c0.21-0.01,0.42-0.04,0.63-0.05c4.7-0.3,9.45-0.22,14.15-0.32c9.74-0.21,19.47-0.41,29.21-0.62c5.49-0.12,10.98-0.23,16.48-0.35
			c2.69-0.06,5.28-2.33,5.15-5.15c-0.12-2.74-2.27-5.22-5.15-5.15c-10.4,0.22-20.8,0.44-31.2,0.66c-5.16,0.11-10.32,0.22-15.48,0.33
			c-4.72,0.1-9.57-0.12-14.26,0.4c-4.94,0.54-11.07,2.74-11.89,8.45c-0.34,2.39,0.26,4.47,2.37,5.82
			c11.53,7.39,26.02,9.61,39.27,6.27c3.47-0.88,4.44-4.66,3.08-7.57c-3.2-6.87-6.39-13.75-9.42-20.69
			c-0.75-1.71-1.48-3.42-2.21-5.14c0.44,1.04-0.16-0.38-0.2-0.49c-0.18-0.43-0.36-0.86-0.54-1.29c-0.36-0.86-0.71-1.72-1.06-2.59
			c-1.46-3.59-2.86-7.21-4.19-10.85c-2.52-6.94-4.77-13.98-6.59-21.13c-0.94-3.69-1.76-7.4-2.44-11.15
			c-0.3-1.64-0.57-3.28-0.81-4.93c-0.07-0.45-0.13-0.9-0.19-1.35c0.17,1.24-0.03-0.26-0.05-0.43c-0.13-1.05-0.25-2.1-0.35-3.15
			c-0.83-8.31-0.85-16.68,0.08-24.98c-3.2,0.87-6.4,1.73-9.61,2.6c0.94,2.08,1.87,4.15,2.81,6.23c1.11,2.47,4.88,3.25,7.05,1.85
			C506.41,52.35,506.9,49.58,505.71,46.94L505.71,46.94z"/>
	</g>
</g>
<g>
	<g>
		<path class="st0" d="M586.19,149.01c25.45-4.38,47.19-23.58,55.43-47.92c1.38-4.07-2.77-6.94-6.34-6.34
			c-12.19,2.05-23.91,9.78-28.19,21.74c-3.81,10.65,0.01,24.18,9.89,30.15c11.65,7.05,26.88,1.62,37.12-5.54
			c9.47-6.62,16.8-15.78,22.26-25.91c6.18-11.46,10.24-24.01,13.08-36.68c1.46-6.49-7.87-9.05-9.94-2.74
			c-2.8,8.52-4.49,17.38-5.12,26.32c-0.56,8.07-0.54,16.75,1.46,24.64c1.72,6.77,5.82,13.64,13.01,15.52
			c7.98,2.09,16.99-2.4,23.5-6.72c7.24-4.81,13.32-11.2,17.67-18.73c-3.14-0.41-6.28-0.82-9.42-1.23
			c3.85,13.89,16,22.31,29.23,26.28c14.88,4.47,30.76,3.78,45.99,1.82c18.62-2.39,36.67-7.28,53.94-14.64
			c4.2-1.79,8.34-3.72,12.41-5.8c4.01-2.05,8.68-4.27,10.16-8.9c1.64-5.09-1.43-9.43-5.36-12.32c-3.45-2.54-7.34-4.63-11.12-6.65
			c-18.22-9.75-38.19-15.66-58.73-17.68c0,3.44,0,6.87,0,10.31c48.72-6.26,97.77-9.9,146.88-10.87c13.99-0.28,27.99-0.33,41.99-0.18
			c6.64,0.07,6.64-10.24,0-10.31c-49.12-0.53-98.26,1.57-147.15,6.34c-13.93,1.36-27.84,2.93-41.72,4.72
			c-2.76,0.35-5.15,2.12-5.15,5.15c0,3.01,2.37,4.88,5.15,5.15c15.83,1.56,31.55,5.82,45.98,12.51c3.61,1.67,7.16,3.49,10.62,5.46
			c2.99,1.69,6.73,3.75,8.65,5.6c-0.02-0.03-0.04-0.06-0.06-0.09c0.31,0.55,0.36,0.62,0.17,0.2c0,0.01,0.04-0.66,0.06-0.6
			c-0.07-0.28,0.88-0.43-0.16,0.26c0.02-0.01,0.93-0.83-0.33,0.21c-0.86,0.71-3.05,1.75-4.45,2.47c-3.74,1.93-7.54,3.74-11.4,5.42
			c-15.1,6.58-31.21,11.06-47.48,13.53c-7.81,1.18-15.76,1.88-23.66,1.95c-6.39,0.05-11.65-0.42-17.37-1.67
			c-3.35-0.73-6.6-1.73-9.8-2.94c-0.97-0.36-0.41-0.16-0.19-0.07c-0.47-0.2-0.93-0.41-1.4-0.63c-0.76-0.36-1.51-0.73-2.26-1.13
			c-1.38-0.74-2.72-1.55-4.01-2.45c-0.27-0.19-0.53-0.38-0.79-0.57c-0.29-0.22-0.26-0.19,0.08,0.07c-0.19-0.15-0.38-0.3-0.56-0.46
			c-0.55-0.46-1.1-0.93-1.62-1.43c-0.58-0.55-1.14-1.11-1.67-1.7c-0.21-0.23-0.42-0.47-0.63-0.72c-0.04-0.05-0.97-1.25-0.38-0.45
			c-0.95-1.29-1.79-2.65-2.51-4.08c-0.14-0.29-0.28-0.58-0.42-0.88c0.31,0.67-0.03-0.06-0.14-0.36c-0.32-0.87-0.6-1.74-0.85-2.63
			c-1.18-4.25-7.2-5.09-9.42-1.23c-2.99,5.19-6.93,9.82-11.71,13.45c-2.35,1.79-5.17,3.49-7.93,4.83c-2.42,1.18-5.47,2.62-8.43,2.59
			c-0.74-0.01-1.24-0.11-1.96-0.3c-0.16-0.04-0.88-0.39-0.17-0.05c-0.22-0.11-0.44-0.23-0.65-0.36c-0.1-0.06-0.95-0.62-0.49-0.29
			c0.41,0.3-0.21-0.19-0.24-0.22c-0.23-0.23-0.46-0.48-0.7-0.69c-0.62-0.57,0,0.09-0.3-0.31c-0.36-0.48-0.67-0.99-0.96-1.51
			c-0.11-0.19-0.87-1.73-0.62-1.14c-0.57-1.32-0.97-2.74-1.3-4.13c-0.73-3.07-0.85-5.05-1.05-8.63c-0.21-3.74-0.21-7.5,0-11.25
			c0.47-8.55,2.17-16.95,4.84-25.08c-3.31-0.91-6.63-1.83-9.94-2.74c-4.28,19.06-11.12,38.59-25.27,52.01
			c-6.65,6.31-16.15,12.27-26.07,11.75c-2.23-0.12-4.44-0.83-6.41-2.06c-0.21-0.13-0.43-0.28-0.63-0.43
			c0.09,0.06,0.49,0.41,0.05,0.03c-0.38-0.33-0.75-0.67-1.11-1.02c-0.41-0.41-0.81-0.85-1.17-1.31c0.46,0.59-0.37-0.61-0.5-0.81
			c-1.27-2.06-1.57-2.88-2.1-5.4c-0.05-0.24-0.28-1.82-0.18-0.93c-0.06-0.52-0.09-1.04-0.11-1.56c-0.02-0.52-0.02-1.04-0.01-1.56
			c0.01-0.26,0.03-0.52,0.04-0.78c0.01-0.16,0.12-1.31,0.01-0.44c0.36-2.85,1.04-4.48,2.26-6.55c1.34-2.28,2.8-3.9,4.99-5.75
			c3.92-3.32,9.23-5.33,14.74-6.26c-2.11-2.11-4.23-4.23-6.34-6.34c-3.49,10.32-10.03,19.59-18.59,26.91
			c-8.29,7.09-18.56,11.91-29.64,13.82c-2.75,0.47-4.29,3.85-3.6,6.34C580.65,148.32,583.44,149.49,586.19,149.01L586.19,149.01z"/>
	</g>
</g>
</svg>
